solid OpenSCAD_Model
  facet normal 0.866025 0.5 0
    outer loop
      vertex 28.3199 12.6088 21.5
      vertex 25.0795 18.2213 14
      vertex 25.0795 18.2213 21.5
    endloop
  endfacet
  facet normal 0.866025 0.5 0
    outer loop
      vertex 25.0795 18.2213 14
      vertex 28.3199 12.6088 21.5
      vertex 28.3199 12.6088 14
    endloop
  endfacet
  facet normal 0.743145 0.66913 0
    outer loop
      vertex 25.0795 18.2213 21.5
      vertex 20.743 23.0375 14
      vertex 20.743 23.0375 21.5
    endloop
  endfacet
  facet normal 0.743145 0.66913 0
    outer loop
      vertex 20.743 23.0375 14
      vertex 25.0795 18.2213 21.5
      vertex 25.0795 18.2213 14
    endloop
  endfacet
  facet normal -0.406737 0.913545 0
    outer loop
      vertex -9.57953 29.4828 14
      vertex -15.5 26.8468 21.5
      vertex -9.57953 29.4828 21.5
    endloop
  endfacet
  facet normal -0.406737 0.913545 0
    outer loop
      vertex -15.5 26.8468 21.5
      vertex -9.57953 29.4828 14
      vertex -15.5 26.8468 14
    endloop
  endfacet
  facet normal -0.866025 0.5 0
    outer loop
      vertex -27.75 13.5959 14
      vertex -25.0795 18.2213 21.5
      vertex -25.0795 18.2213 14
    endloop
  endfacet
  facet normal -0.866026 0.5 0
    outer loop
      vertex -28.3199 12.6088 21.5
      vertex -27.75 13.5959 14
      vertex -28.3199 12.6088 14
    endloop
  endfacet
  facet normal -0.866025 0.5 9.84643e-008
    outer loop
      vertex -27.75 13.5959 14
      vertex -28.3199 12.6088 21.5
      vertex -25.0795 18.2213 21.5
    endloop
  endfacet
  facet normal -0.587785 0.809017 0
    outer loop
      vertex -15.5 26.8468 14
      vertex -20.743 23.0375 21.5
      vertex -15.5 26.8468 21.5
    endloop
  endfacet
  facet normal -0.587785 0.809017 0
    outer loop
      vertex -20.743 23.0375 21.5
      vertex -15.5 26.8468 14
      vertex -20.743 23.0375 14
    endloop
  endfacet
  facet normal 0.994522 -0.104529 0
    outer loop
      vertex 30.3226 -6.44526 21.5
      vertex 31 0 14
      vertex 31 0 21.5
    endloop
  endfacet
  facet normal 0.994522 -0.104529 0
    outer loop
      vertex 31 0 14
      vertex 30.3226 -6.44526 21.5
      vertex 30.3226 -6.44526 14
    endloop
  endfacet
  facet normal 0.951057 0.309017 0
    outer loop
      vertex 30.3226 6.44526 21.5
      vertex 28.3199 12.6088 14
      vertex 28.3199 12.6088 21.5
    endloop
  endfacet
  facet normal 0.951057 0.309017 0
    outer loop
      vertex 28.3199 12.6088 14
      vertex 30.3226 6.44526 21.5
      vertex 30.3226 6.44526 14
    endloop
  endfacet
  facet normal 0.587785 0.809017 -0
    outer loop
      vertex 20.743 23.0375 14
      vertex 15.5 26.8468 21.5
      vertex 20.743 23.0375 21.5
    endloop
  endfacet
  facet normal 0.587785 0.809017 0
    outer loop
      vertex 15.5 26.8468 21.5
      vertex 20.743 23.0375 14
      vertex 15.5 26.8468 14
    endloop
  endfacet
  facet normal 0 1 -0
    outer loop
      vertex 3.24038 30.8302 14
      vertex -3.24038 30.8302 21.5
      vertex 3.24038 30.8302 21.5
    endloop
  endfacet
  facet normal 0 1 0
    outer loop
      vertex -3.24038 30.8302 21.5
      vertex 3.24038 30.8302 14
      vertex -3.24038 30.8302 14
    endloop
  endfacet
  facet normal 0.406737 0.913545 -0
    outer loop
      vertex 15.5 26.8468 14
      vertex 9.57953 29.4828 21.5
      vertex 15.5 26.8468 21.5
    endloop
  endfacet
  facet normal 0.406737 0.913545 0
    outer loop
      vertex 9.57953 29.4828 21.5
      vertex 15.5 26.8468 14
      vertex 9.57953 29.4828 14
    endloop
  endfacet
  facet normal -0.994522 0.104529 0
    outer loop
      vertex -31 0 14
      vertex -30.3226 6.44526 21.5
      vertex -30.3226 6.44526 14
    endloop
  endfacet
  facet normal -0.994522 0.104529 0
    outer loop
      vertex -30.3226 6.44526 21.5
      vertex -31 0 14
      vertex -31 0 21.5
    endloop
  endfacet
  facet normal -0.743145 0.66913 0
    outer loop
      vertex -25.0795 18.2213 14
      vertex -20.743 23.0375 21.5
      vertex -20.743 23.0375 14
    endloop
  endfacet
  facet normal -0.743145 0.66913 0
    outer loop
      vertex -20.743 23.0375 21.5
      vertex -25.0795 18.2213 14
      vertex -25.0795 18.2213 21.5
    endloop
  endfacet
  facet normal -0.207912 0.978148 0
    outer loop
      vertex -3.24038 30.8302 14
      vertex -9.57953 29.4828 21.5
      vertex -3.24038 30.8302 21.5
    endloop
  endfacet
  facet normal -0.207912 0.978148 0
    outer loop
      vertex -9.57953 29.4828 21.5
      vertex -3.24038 30.8302 14
      vertex -9.57953 29.4828 14
    endloop
  endfacet
  facet normal 0.994522 0.104529 0
    outer loop
      vertex 31 0 21.5
      vertex 30.3226 6.44526 14
      vertex 30.3226 6.44526 21.5
    endloop
  endfacet
  facet normal 0.994522 0.104529 0
    outer loop
      vertex 30.3226 6.44526 14
      vertex 31 0 21.5
      vertex 31 0 14
    endloop
  endfacet
  facet normal 0.951057 -0.309017 0
    outer loop
      vertex 28.3199 -12.6088 21.5
      vertex 30.3226 -6.44526 14
      vertex 30.3226 -6.44526 21.5
    endloop
  endfacet
  facet normal 0.951057 -0.309017 0
    outer loop
      vertex 30.3226 -6.44526 14
      vertex 28.3199 -12.6088 21.5
      vertex 28.3199 -12.6088 14
    endloop
  endfacet
  facet normal -0.587785 -0.809017 0
    outer loop
      vertex -20.743 -23.0375 14
      vertex -15.5 -26.8468 21.5
      vertex -20.743 -23.0375 21.5
    endloop
  endfacet
  facet normal -0.587785 -0.809017 -0
    outer loop
      vertex -15.5 -26.8468 21.5
      vertex -20.743 -23.0375 14
      vertex -15.5 -26.8468 14
    endloop
  endfacet
  facet normal -0.866026 -0.5 0
    outer loop
      vertex -27.75 -13.5959 14
      vertex -28.3199 -12.6088 21.5
      vertex -28.3199 -12.6088 14
    endloop
  endfacet
  facet normal -0.866025 -0.5 -0
    outer loop
      vertex -25.0795 -18.2213 21.5
      vertex -27.75 -13.5959 14
      vertex -25.0795 -18.2213 14
    endloop
  endfacet
  facet normal -0.866025 -0.5 9.84643e-008
    outer loop
      vertex -27.75 -13.5959 14
      vertex -25.0795 -18.2213 21.5
      vertex -28.3199 -12.6088 21.5
    endloop
  endfacet
  facet normal 0.207912 0.978148 -0
    outer loop
      vertex 9.57953 29.4828 14
      vertex 3.24038 30.8302 21.5
      vertex 9.57953 29.4828 21.5
    endloop
  endfacet
  facet normal 0.207912 0.978148 0
    outer loop
      vertex 3.24038 30.8302 21.5
      vertex 9.57953 29.4828 14
      vertex 3.24038 30.8302 14
    endloop
  endfacet
  facet normal 0 0 1
    outer loop
      vertex 25 0 21.5
      vertex 31 0 21.5
      vertex 30.3226 6.44526 21.5
    endloop
  endfacet
  facet normal 0 0 1
    outer loop
      vertex 24.4537 5.19779 21.5
      vertex 30.3226 6.44526 21.5
      vertex 28.3199 12.6088 21.5
    endloop
  endfacet
  facet normal 0 0 1
    outer loop
      vertex 31 0 21.5
      vertex 25 0 21.5
      vertex 30.3226 -6.44526 21.5
    endloop
  endfacet
  facet normal 0 0 1
    outer loop
      vertex 22.8386 10.1684 21.5
      vertex 28.3199 12.6088 21.5
      vertex 25.0795 18.2213 21.5
    endloop
  endfacet
  facet normal -0 0 1
    outer loop
      vertex 24.4537 -5.19779 21.5
      vertex 30.3226 -6.44526 21.5
      vertex 25 0 21.5
    endloop
  endfacet
  facet normal 0 0 1
    outer loop
      vertex 30.3226 -6.44526 21.5
      vertex 24.4537 -5.19779 21.5
      vertex 28.3199 -12.6088 21.5
    endloop
  endfacet
  facet normal 0 0 1
    outer loop
      vertex 30.3226 6.44526 21.5
      vertex 24.4537 5.19779 21.5
      vertex 25 0 21.5
    endloop
  endfacet
  facet normal 0 0 1
    outer loop
      vertex 28.3199 12.6088 21.5
      vertex 22.8386 10.1684 21.5
      vertex 24.4537 5.19779 21.5
    endloop
  endfacet
  facet normal 0 0 1
    outer loop
      vertex 20.2254 14.6946 21.5
      vertex 25.0795 18.2213 21.5
      vertex 20.743 23.0375 21.5
    endloop
  endfacet
  facet normal 0 0 1
    outer loop
      vertex 25.0795 18.2213 21.5
      vertex 20.2254 14.6946 21.5
      vertex 22.8386 10.1684 21.5
    endloop
  endfacet
  facet normal 0 0 1
    outer loop
      vertex 20.743 23.0375 21.5
      vertex 16.7283 18.5786 21.5
      vertex 20.2254 14.6946 21.5
    endloop
  endfacet
  facet normal 0 0 1
    outer loop
      vertex 15.5 26.8468 21.5
      vertex 16.7283 18.5786 21.5
      vertex 20.743 23.0375 21.5
    endloop
  endfacet
  facet normal 0 0 1
    outer loop
      vertex 15.5 26.8468 21.5
      vertex 12.5 21.6506 21.5
      vertex 16.7283 18.5786 21.5
    endloop
  endfacet
  facet normal 0 0 1
    outer loop
      vertex 9.57953 29.4828 21.5
      vertex 12.5 21.6506 21.5
      vertex 15.5 26.8468 21.5
    endloop
  endfacet
  facet normal 0 0 1
    outer loop
      vertex 9.57953 29.4828 21.5
      vertex 7.72542 23.7764 21.5
      vertex 12.5 21.6506 21.5
    endloop
  endfacet
  facet normal 0 0 1
    outer loop
      vertex 3.24038 30.8302 21.5
      vertex 7.72542 23.7764 21.5
      vertex 9.57953 29.4828 21.5
    endloop
  endfacet
  facet normal 0 0 1
    outer loop
      vertex 3.24038 30.8302 21.5
      vertex 2.61321 24.863 21.5
      vertex 7.72542 23.7764 21.5
    endloop
  endfacet
  facet normal 0 0 1
    outer loop
      vertex 3.24038 30.8302 21.5
      vertex -2.61321 24.863 21.5
      vertex 2.61321 24.863 21.5
    endloop
  endfacet
  facet normal -0 0 1
    outer loop
      vertex -3.24038 30.8302 21.5
      vertex -2.61321 24.863 21.5
      vertex 3.24038 30.8302 21.5
    endloop
  endfacet
  facet normal 0 0 1
    outer loop
      vertex -3.24038 30.8302 21.5
      vertex -7.72542 23.7764 21.5
      vertex -2.61321 24.863 21.5
    endloop
  endfacet
  facet normal -0 0 1
    outer loop
      vertex -9.57953 29.4828 21.5
      vertex -7.72542 23.7764 21.5
      vertex -3.24038 30.8302 21.5
    endloop
  endfacet
  facet normal 0 0 1
    outer loop
      vertex -9.57953 29.4828 21.5
      vertex -12.5 21.6506 21.5
      vertex -7.72542 23.7764 21.5
    endloop
  endfacet
  facet normal -0 0 1
    outer loop
      vertex -15.5 26.8468 21.5
      vertex -12.5 21.6506 21.5
      vertex -9.57953 29.4828 21.5
    endloop
  endfacet
  facet normal 0 0 1
    outer loop
      vertex -15.5 26.8468 21.5
      vertex -16.7283 18.5786 21.5
      vertex -12.5 21.6506 21.5
    endloop
  endfacet
  facet normal -0 0 1
    outer loop
      vertex -20.743 23.0375 21.5
      vertex -16.7283 18.5786 21.5
      vertex -15.5 26.8468 21.5
    endloop
  endfacet
  facet normal 0 0 1
    outer loop
      vertex -16.7283 18.5786 21.5
      vertex -20.743 23.0375 21.5
      vertex -20.2254 14.6946 21.5
    endloop
  endfacet
  facet normal -0 0 1
    outer loop
      vertex -25.0795 18.2213 21.5
      vertex -20.2254 14.6946 21.5
      vertex -20.743 23.0375 21.5
    endloop
  endfacet
  facet normal 0 0 1
    outer loop
      vertex -20.2254 14.6946 21.5
      vertex -25.0795 18.2213 21.5
      vertex -22.8386 10.1684 21.5
    endloop
  endfacet
  facet normal 0 0 1
    outer loop
      vertex -22.8386 10.1684 21.5
      vertex -28.3199 12.6088 21.5
      vertex -24.4537 5.19779 21.5
    endloop
  endfacet
  facet normal -0 0 1
    outer loop
      vertex -28.3199 12.6088 21.5
      vertex -22.8386 10.1684 21.5
      vertex -25.0795 18.2213 21.5
    endloop
  endfacet
  facet normal -0 0 1
    outer loop
      vertex 22.8386 -10.1684 21.5
      vertex 28.3199 -12.6088 21.5
      vertex 24.4537 -5.19779 21.5
    endloop
  endfacet
  facet normal 0 0 1
    outer loop
      vertex 28.3199 -12.6088 21.5
      vertex 22.8386 -10.1684 21.5
      vertex 25.0795 -18.2213 21.5
    endloop
  endfacet
  facet normal -0 0 1
    outer loop
      vertex 20.2254 -14.6946 21.5
      vertex 25.0795 -18.2213 21.5
      vertex 22.8386 -10.1684 21.5
    endloop
  endfacet
  facet normal 0 0 1
    outer loop
      vertex 25.0795 -18.2213 21.5
      vertex 20.2254 -14.6946 21.5
      vertex 20.743 -23.0375 21.5
    endloop
  endfacet
  facet normal -0 0 1
    outer loop
      vertex 16.7283 -18.5786 21.5
      vertex 20.743 -23.0375 21.5
      vertex 20.2254 -14.6946 21.5
    endloop
  endfacet
  facet normal 0 0 1
    outer loop
      vertex 16.7283 -18.5786 21.5
      vertex 15.5 -26.8468 21.5
      vertex 20.743 -23.0375 21.5
    endloop
  endfacet
  facet normal -0 0 1
    outer loop
      vertex 12.5 -21.6506 21.5
      vertex 15.5 -26.8468 21.5
      vertex 16.7283 -18.5786 21.5
    endloop
  endfacet
  facet normal 0 0 1
    outer loop
      vertex 12.5 -21.6506 21.5
      vertex 9.57953 -29.4828 21.5
      vertex 15.5 -26.8468 21.5
    endloop
  endfacet
  facet normal -0 0 1
    outer loop
      vertex 7.72542 -23.7764 21.5
      vertex 9.57953 -29.4828 21.5
      vertex 12.5 -21.6506 21.5
    endloop
  endfacet
  facet normal 0 0 1
    outer loop
      vertex 7.72542 -23.7764 21.5
      vertex 3.24038 -30.8302 21.5
      vertex 9.57953 -29.4828 21.5
    endloop
  endfacet
  facet normal -0 0 1
    outer loop
      vertex 2.61321 -24.863 21.5
      vertex 3.24038 -30.8302 21.5
      vertex 7.72542 -23.7764 21.5
    endloop
  endfacet
  facet normal -0 0 1
    outer loop
      vertex -2.61321 -24.863 21.5
      vertex 3.24038 -30.8302 21.5
      vertex 2.61321 -24.863 21.5
    endloop
  endfacet
  facet normal 0 0 1
    outer loop
      vertex -2.61321 -24.863 21.5
      vertex -3.24038 -30.8302 21.5
      vertex 3.24038 -30.8302 21.5
    endloop
  endfacet
  facet normal 0 0 1
    outer loop
      vertex -7.72542 -23.7764 21.5
      vertex -3.24038 -30.8302 21.5
      vertex -2.61321 -24.863 21.5
    endloop
  endfacet
  facet normal 0 0 1
    outer loop
      vertex -7.72542 -23.7764 21.5
      vertex -9.57953 -29.4828 21.5
      vertex -3.24038 -30.8302 21.5
    endloop
  endfacet
  facet normal 0 0 1
    outer loop
      vertex -12.5 -21.6506 21.5
      vertex -9.57953 -29.4828 21.5
      vertex -7.72542 -23.7764 21.5
    endloop
  endfacet
  facet normal 0 0 1
    outer loop
      vertex -12.5 -21.6506 21.5
      vertex -15.5 -26.8468 21.5
      vertex -9.57953 -29.4828 21.5
    endloop
  endfacet
  facet normal 0 0 1
    outer loop
      vertex -16.7283 -18.5786 21.5
      vertex -15.5 -26.8468 21.5
      vertex -12.5 -21.6506 21.5
    endloop
  endfacet
  facet normal 0 0 1
    outer loop
      vertex -20.743 -23.0375 21.5
      vertex -16.7283 -18.5786 21.5
      vertex -20.2254 -14.6946 21.5
    endloop
  endfacet
  facet normal 0 0 1
    outer loop
      vertex -16.7283 -18.5786 21.5
      vertex -20.743 -23.0375 21.5
      vertex -15.5 -26.8468 21.5
    endloop
  endfacet
  facet normal 0 0 1
    outer loop
      vertex -25.0795 -18.2213 21.5
      vertex -20.2254 -14.6946 21.5
      vertex -22.8386 -10.1684 21.5
    endloop
  endfacet
  facet normal 0 0 1
    outer loop
      vertex -28.3199 -12.6088 21.5
      vertex -22.8386 -10.1684 21.5
      vertex -24.4537 -5.19779 21.5
    endloop
  endfacet
  facet normal 0 0 1
    outer loop
      vertex -20.2254 -14.6946 21.5
      vertex -25.0795 -18.2213 21.5
      vertex -20.743 -23.0375 21.5
    endloop
  endfacet
  facet normal 0 0 1
    outer loop
      vertex -30.3226 -6.44526 21.5
      vertex -24.4537 -5.19779 21.5
      vertex -25 0 21.5
    endloop
  endfacet
  facet normal -0 0 1
    outer loop
      vertex -30.3226 6.44526 21.5
      vertex -24.4537 5.19779 21.5
      vertex -28.3199 12.6088 21.5
    endloop
  endfacet
  facet normal 0 0 1
    outer loop
      vertex -24.4537 5.19779 21.5
      vertex -30.3226 6.44526 21.5
      vertex -25 0 21.5
    endloop
  endfacet
  facet normal 0 0 1
    outer loop
      vertex -22.8386 -10.1684 21.5
      vertex -28.3199 -12.6088 21.5
      vertex -25.0795 -18.2213 21.5
    endloop
  endfacet
  facet normal 0 0 1
    outer loop
      vertex -31 0 21.5
      vertex -25 0 21.5
      vertex -30.3226 6.44526 21.5
    endloop
  endfacet
  facet normal 0 0 1
    outer loop
      vertex -24.4537 -5.19779 21.5
      vertex -30.3226 -6.44526 21.5
      vertex -28.3199 -12.6088 21.5
    endloop
  endfacet
  facet normal 0 0 1
    outer loop
      vertex -25 0 21.5
      vertex -31 0 21.5
      vertex -30.3226 -6.44526 21.5
    endloop
  endfacet
  facet normal -0.951057 0.309017 0
    outer loop
      vertex -30.3226 6.44526 14
      vertex -28.3199 12.6088 21.5
      vertex -28.3199 12.6088 14
    endloop
  endfacet
  facet normal -0.951057 0.309017 0
    outer loop
      vertex -28.3199 12.6088 21.5
      vertex -30.3226 6.44526 14
      vertex -30.3226 6.44526 21.5
    endloop
  endfacet
  facet normal 0 -1 0
    outer loop
      vertex -3.24038 -30.8302 14
      vertex 3.24038 -30.8302 21.5
      vertex -3.24038 -30.8302 21.5
    endloop
  endfacet
  facet normal 0 -1 -0
    outer loop
      vertex 3.24038 -30.8302 21.5
      vertex -3.24038 -30.8302 14
      vertex 3.24038 -30.8302 14
    endloop
  endfacet
  facet normal 0 0 1
    outer loop
      vertex 31.75 31.75 14
      vertex 31 0 14
      vertex 31.75 -31.75 14
    endloop
  endfacet
  facet normal 0 0 1
    outer loop
      vertex 31.75 31.75 14
      vertex 30.3226 6.44526 14
      vertex 31 0 14
    endloop
  endfacet
  facet normal 0 0 1
    outer loop
      vertex 31.75 31.75 14
      vertex 28.3199 12.6088 14
      vertex 30.3226 6.44526 14
    endloop
  endfacet
  facet normal 0 0 1
    outer loop
      vertex 31.75 31.75 14
      vertex 25.0795 18.2213 14
      vertex 28.3199 12.6088 14
    endloop
  endfacet
  facet normal 0 0 1
    outer loop
      vertex 31.75 31.75 14
      vertex 20.743 23.0375 14
      vertex 25.0795 18.2213 14
    endloop
  endfacet
  facet normal 0 0 1
    outer loop
      vertex 31.75 31.75 14
      vertex 15.5 26.8468 14
      vertex 20.743 23.0375 14
    endloop
  endfacet
  facet normal 0 0 1
    outer loop
      vertex 31.75 31.75 14
      vertex 9.57953 29.4828 14
      vertex 15.5 26.8468 14
    endloop
  endfacet
  facet normal 0 0 1
    outer loop
      vertex 31.75 31.75 14
      vertex 3.24038 30.8302 14
      vertex 9.57953 29.4828 14
    endloop
  endfacet
  facet normal 0 0 1
    outer loop
      vertex 31.75 31.75 14
      vertex -3.24038 30.8302 14
      vertex 3.24038 30.8302 14
    endloop
  endfacet
  facet normal -0 0 1
    outer loop
      vertex -27.75 31.75 14
      vertex -3.24038 30.8302 14
      vertex 31.75 31.75 14
    endloop
  endfacet
  facet normal 0 0 1
    outer loop
      vertex -27.75 31.75 14
      vertex -9.57953 29.4828 14
      vertex -3.24038 30.8302 14
    endloop
  endfacet
  facet normal 0 0 1
    outer loop
      vertex -27.75 31.75 14
      vertex -15.5 26.8468 14
      vertex -9.57953 29.4828 14
    endloop
  endfacet
  facet normal 0 0 1
    outer loop
      vertex -27.75 31.75 14
      vertex -20.743 23.0375 14
      vertex -15.5 26.8468 14
    endloop
  endfacet
  facet normal 0 0 1
    outer loop
      vertex -27.75 31.75 14
      vertex -25.0795 18.2213 14
      vertex -20.743 23.0375 14
    endloop
  endfacet
  facet normal 0 0 1
    outer loop
      vertex -25.0795 18.2213 14
      vertex -27.75 31.75 14
      vertex -27.75 13.5959 14
    endloop
  endfacet
  facet normal -0 0 1
    outer loop
      vertex 30.3226 -6.44526 14
      vertex 31.75 -31.75 14
      vertex 31 0 14
    endloop
  endfacet
  facet normal -0 0 1
    outer loop
      vertex 28.3199 -12.6088 14
      vertex 31.75 -31.75 14
      vertex 30.3226 -6.44526 14
    endloop
  endfacet
  facet normal -0 0 1
    outer loop
      vertex 25.0795 -18.2213 14
      vertex 31.75 -31.75 14
      vertex 28.3199 -12.6088 14
    endloop
  endfacet
  facet normal -0 0 1
    outer loop
      vertex 20.743 -23.0375 14
      vertex 31.75 -31.75 14
      vertex 25.0795 -18.2213 14
    endloop
  endfacet
  facet normal -0 0 1
    outer loop
      vertex 15.5 -26.8468 14
      vertex 31.75 -31.75 14
      vertex 20.743 -23.0375 14
    endloop
  endfacet
  facet normal -0 0 1
    outer loop
      vertex 9.57953 -29.4828 14
      vertex 31.75 -31.75 14
      vertex 15.5 -26.8468 14
    endloop
  endfacet
  facet normal -0 0 1
    outer loop
      vertex 3.24038 -30.8302 14
      vertex 31.75 -31.75 14
      vertex 9.57953 -29.4828 14
    endloop
  endfacet
  facet normal -0 0 1
    outer loop
      vertex -3.24038 -30.8302 14
      vertex 31.75 -31.75 14
      vertex 3.24038 -30.8302 14
    endloop
  endfacet
  facet normal 0 0 1
    outer loop
      vertex -3.24038 -30.8302 14
      vertex -27.75 -31.75 14
      vertex 31.75 -31.75 14
    endloop
  endfacet
  facet normal 0 0 1
    outer loop
      vertex -9.57953 -29.4828 14
      vertex -27.75 -31.75 14
      vertex -3.24038 -30.8302 14
    endloop
  endfacet
  facet normal 0 0 1
    outer loop
      vertex -15.5 -26.8468 14
      vertex -27.75 -31.75 14
      vertex -9.57953 -29.4828 14
    endloop
  endfacet
  facet normal 0 0 1
    outer loop
      vertex -20.743 -23.0375 14
      vertex -27.75 -31.75 14
      vertex -15.5 -26.8468 14
    endloop
  endfacet
  facet normal 0 0 1
    outer loop
      vertex -25.0795 -18.2213 14
      vertex -27.75 -31.75 14
      vertex -20.743 -23.0375 14
    endloop
  endfacet
  facet normal 0 0 1
    outer loop
      vertex -27.75 -31.75 14
      vertex -25.0795 -18.2213 14
      vertex -27.75 -13.5959 14
    endloop
  endfacet
  facet normal 0 0 -1
    outer loop
      vertex -30.3226 -6.44526 14
      vertex -27.75 -13.5959 14
      vertex -28.3199 -12.6088 14
    endloop
  endfacet
  facet normal 0 0 -1
    outer loop
      vertex -27.75 -13.5959 14
      vertex -30.3226 -6.44526 14
      vertex -27.75 13.5959 14
    endloop
  endfacet
  facet normal 0 0 -1
    outer loop
      vertex -30.3226 6.44526 14
      vertex -27.75 13.5959 14
      vertex -30.3226 -6.44526 14
    endloop
  endfacet
  facet normal 0 0 -1
    outer loop
      vertex -27.75 13.5959 14
      vertex -30.3226 6.44526 14
      vertex -28.3199 12.6088 14
    endloop
  endfacet
  facet normal 0 -0 -1
    outer loop
      vertex -30.3226 6.44526 14
      vertex -30.3226 -6.44526 14
      vertex -31 0 14
    endloop
  endfacet
  facet normal -0.743145 -0.66913 0
    outer loop
      vertex -20.743 -23.0375 14
      vertex -25.0795 -18.2213 21.5
      vertex -25.0795 -18.2213 14
    endloop
  endfacet
  facet normal -0.743145 -0.66913 0
    outer loop
      vertex -25.0795 -18.2213 21.5
      vertex -20.743 -23.0375 14
      vertex -20.743 -23.0375 21.5
    endloop
  endfacet
  facet normal 0.207912 -0.978148 0
    outer loop
      vertex 3.24038 -30.8302 14
      vertex 9.57953 -29.4828 21.5
      vertex 3.24038 -30.8302 21.5
    endloop
  endfacet
  facet normal 0.207912 -0.978148 0
    outer loop
      vertex 9.57953 -29.4828 21.5
      vertex 3.24038 -30.8302 14
      vertex 9.57953 -29.4828 14
    endloop
  endfacet
  facet normal 0.406737 -0.913545 0
    outer loop
      vertex 9.57953 -29.4828 14
      vertex 15.5 -26.8468 21.5
      vertex 9.57953 -29.4828 21.5
    endloop
  endfacet
  facet normal 0.406737 -0.913545 0
    outer loop
      vertex 15.5 -26.8468 21.5
      vertex 9.57953 -29.4828 14
      vertex 15.5 -26.8468 14
    endloop
  endfacet
  facet normal 0.743145 -0.66913 0
    outer loop
      vertex 20.743 -23.0375 21.5
      vertex 25.0795 -18.2213 14
      vertex 25.0795 -18.2213 21.5
    endloop
  endfacet
  facet normal 0.743145 -0.66913 0
    outer loop
      vertex 25.0795 -18.2213 14
      vertex 20.743 -23.0375 21.5
      vertex 20.743 -23.0375 14
    endloop
  endfacet
  facet normal 0.587785 -0.809017 0
    outer loop
      vertex 15.5 -26.8468 14
      vertex 20.743 -23.0375 21.5
      vertex 15.5 -26.8468 21.5
    endloop
  endfacet
  facet normal 0.587785 -0.809017 0
    outer loop
      vertex 20.743 -23.0375 21.5
      vertex 15.5 -26.8468 14
      vertex 20.743 -23.0375 14
    endloop
  endfacet
  facet normal 0.866025 -0.5 0
    outer loop
      vertex 25.0795 -18.2213 21.5
      vertex 28.3199 -12.6088 14
      vertex 28.3199 -12.6088 21.5
    endloop
  endfacet
  facet normal 0.866025 -0.5 0
    outer loop
      vertex 28.3199 -12.6088 14
      vertex 25.0795 -18.2213 21.5
      vertex 25.0795 -18.2213 14
    endloop
  endfacet
  facet normal -0.406737 -0.913545 0
    outer loop
      vertex -15.5 -26.8468 14
      vertex -9.57953 -29.4828 21.5
      vertex -15.5 -26.8468 21.5
    endloop
  endfacet
  facet normal -0.406737 -0.913545 -0
    outer loop
      vertex -9.57953 -29.4828 21.5
      vertex -15.5 -26.8468 14
      vertex -9.57953 -29.4828 14
    endloop
  endfacet
  facet normal -0.207912 -0.978148 0
    outer loop
      vertex -9.57953 -29.4828 14
      vertex -3.24038 -30.8302 21.5
      vertex -9.57953 -29.4828 21.5
    endloop
  endfacet
  facet normal -0.207912 -0.978148 -0
    outer loop
      vertex -3.24038 -30.8302 21.5
      vertex -9.57953 -29.4828 14
      vertex -3.24038 -30.8302 14
    endloop
  endfacet
  facet normal -0.951057 -0.309017 0
    outer loop
      vertex -28.3199 -12.6088 14
      vertex -30.3226 -6.44526 21.5
      vertex -30.3226 -6.44526 14
    endloop
  endfacet
  facet normal -0.951057 -0.309017 0
    outer loop
      vertex -30.3226 -6.44526 21.5
      vertex -28.3199 -12.6088 14
      vertex -28.3199 -12.6088 21.5
    endloop
  endfacet
  facet normal -0.994522 -0.104529 0
    outer loop
      vertex -30.3226 -6.44526 14
      vertex -31 0 21.5
      vertex -31 0 14
    endloop
  endfacet
  facet normal -0.994522 -0.104529 0
    outer loop
      vertex -31 0 21.5
      vertex -30.3226 -6.44526 14
      vertex -30.3226 -6.44526 21.5
    endloop
  endfacet
  facet normal -0.866025 -0.5 0
    outer loop
      vertex 22.8386 10.1684 10
      vertex 20.2254 14.6946 21.5
      vertex 20.2254 14.6946 10
    endloop
  endfacet
  facet normal -0.866025 -0.5 0
    outer loop
      vertex 20.2254 14.6946 21.5
      vertex 22.8386 10.1684 10
      vertex 22.8386 10.1684 21.5
    endloop
  endfacet
  facet normal 0 -1 0
    outer loop
      vertex -2.61321 24.863 10
      vertex 2.61321 24.863 21.5
      vertex -2.61321 24.863 21.5
    endloop
  endfacet
  facet normal 0 -1 -0
    outer loop
      vertex 2.61321 24.863 21.5
      vertex -2.61321 24.863 10
      vertex 2.61321 24.863 10
    endloop
  endfacet
  facet normal 0.951057 -0.309017 0
    outer loop
      vertex -24.4537 5.19779 21.5
      vertex -22.8386 10.1684 10
      vertex -22.8386 10.1684 21.5
    endloop
  endfacet
  facet normal 0.951057 -0.309017 0
    outer loop
      vertex -22.8386 10.1684 10
      vertex -24.4537 5.19779 21.5
      vertex -24.4537 5.19779 10
    endloop
  endfacet
  facet normal -0.743145 -0.669131 0
    outer loop
      vertex 20.2254 14.6946 10
      vertex 16.7283 18.5786 21.5
      vertex 16.7283 18.5786 10
    endloop
  endfacet
  facet normal -0.743145 -0.669131 0
    outer loop
      vertex 16.7283 18.5786 21.5
      vertex 20.2254 14.6946 10
      vertex 20.2254 14.6946 21.5
    endloop
  endfacet
  facet normal -0.207912 -0.978148 0
    outer loop
      vertex 2.61321 24.863 10
      vertex 7.72542 23.7764 21.5
      vertex 2.61321 24.863 21.5
    endloop
  endfacet
  facet normal -0.207912 -0.978148 -0
    outer loop
      vertex 7.72542 23.7764 21.5
      vertex 2.61321 24.863 10
      vertex 7.72542 23.7764 10
    endloop
  endfacet
  facet normal 0.406737 -0.913545 0
    outer loop
      vertex -12.5 21.6506 10
      vertex -7.72542 23.7764 21.5
      vertex -12.5 21.6506 21.5
    endloop
  endfacet
  facet normal 0.406737 -0.913545 0
    outer loop
      vertex -7.72542 23.7764 21.5
      vertex -12.5 21.6506 10
      vertex -7.72542 23.7764 10
    endloop
  endfacet
  facet normal 0.866025 -0.5 0
    outer loop
      vertex -22.8386 10.1684 21.5
      vertex -20.2254 14.6946 10
      vertex -20.2254 14.6946 21.5
    endloop
  endfacet
  facet normal 0.866025 -0.5 0
    outer loop
      vertex -20.2254 14.6946 10
      vertex -22.8386 10.1684 21.5
      vertex -22.8386 10.1684 10
    endloop
  endfacet
  facet normal -0.994522 0.104529 0
    outer loop
      vertex 24.4537 -5.19779 10
      vertex 25 0 21.5
      vertex 25 0 10
    endloop
  endfacet
  facet normal -0.994522 0.104529 0
    outer loop
      vertex 25 0 21.5
      vertex 24.4537 -5.19779 10
      vertex 24.4537 -5.19779 21.5
    endloop
  endfacet
  facet normal -0.207912 0.978148 0
    outer loop
      vertex 7.72542 -23.7764 10
      vertex 2.61321 -24.863 21.5
      vertex 7.72542 -23.7764 21.5
    endloop
  endfacet
  facet normal -0.207912 0.978148 0
    outer loop
      vertex 2.61321 -24.863 21.5
      vertex 7.72542 -23.7764 10
      vertex 2.61321 -24.863 10
    endloop
  endfacet
  facet normal -0.951057 -0.309017 0
    outer loop
      vertex 24.4537 5.19779 10
      vertex 22.8386 10.1684 21.5
      vertex 22.8386 10.1684 10
    endloop
  endfacet
  facet normal -0.951057 -0.309017 0
    outer loop
      vertex 22.8386 10.1684 21.5
      vertex 24.4537 5.19779 10
      vertex 24.4537 5.19779 21.5
    endloop
  endfacet
  facet normal -0.587785 -0.809017 0
    outer loop
      vertex 12.5 21.6506 10
      vertex 16.7283 18.5786 21.5
      vertex 12.5 21.6506 21.5
    endloop
  endfacet
  facet normal -0.587785 -0.809017 -0
    outer loop
      vertex 16.7283 18.5786 21.5
      vertex 12.5 21.6506 10
      vertex 16.7283 18.5786 10
    endloop
  endfacet
  facet normal -0.406737 -0.913545 0
    outer loop
      vertex 7.72542 23.7764 10
      vertex 12.5 21.6506 21.5
      vertex 7.72542 23.7764 21.5
    endloop
  endfacet
  facet normal -0.406737 -0.913545 -0
    outer loop
      vertex 12.5 21.6506 21.5
      vertex 7.72542 23.7764 10
      vertex 12.5 21.6506 10
    endloop
  endfacet
  facet normal 0.994522 -0.104529 0
    outer loop
      vertex -25 0 21.5
      vertex -24.4537 5.19779 10
      vertex -24.4537 5.19779 21.5
    endloop
  endfacet
  facet normal 0.994522 -0.104529 0
    outer loop
      vertex -24.4537 5.19779 10
      vertex -25 0 21.5
      vertex -25 0 10
    endloop
  endfacet
  facet normal 0.587785 -0.809017 0
    outer loop
      vertex -16.7283 18.5786 10
      vertex -12.5 21.6506 21.5
      vertex -16.7283 18.5786 21.5
    endloop
  endfacet
  facet normal 0.587785 -0.809017 0
    outer loop
      vertex -12.5 21.6506 21.5
      vertex -16.7283 18.5786 10
      vertex -12.5 21.6506 10
    endloop
  endfacet
  facet normal 0.207912 -0.978148 0
    outer loop
      vertex -7.72542 23.7764 10
      vertex -2.61321 24.863 21.5
      vertex -7.72542 23.7764 21.5
    endloop
  endfacet
  facet normal 0.207912 -0.978148 0
    outer loop
      vertex -2.61321 24.863 21.5
      vertex -7.72542 23.7764 10
      vertex -2.61321 24.863 10
    endloop
  endfacet
  facet normal 0.743145 -0.669131 0
    outer loop
      vertex -20.2254 14.6946 21.5
      vertex -16.7283 18.5786 10
      vertex -16.7283 18.5786 21.5
    endloop
  endfacet
  facet normal 0.743145 -0.669131 0
    outer loop
      vertex -16.7283 18.5786 10
      vertex -20.2254 14.6946 21.5
      vertex -20.2254 14.6946 10
    endloop
  endfacet
  facet normal -0.994522 -0.104529 0
    outer loop
      vertex 25 0 10
      vertex 24.4537 5.19779 21.5
      vertex 24.4537 5.19779 10
    endloop
  endfacet
  facet normal -0.994522 -0.104529 0
    outer loop
      vertex 24.4537 5.19779 21.5
      vertex 25 0 10
      vertex 25 0 21.5
    endloop
  endfacet
  facet normal -0.951057 0.309017 0
    outer loop
      vertex 22.8386 -10.1684 10
      vertex 24.4537 -5.19779 21.5
      vertex 24.4537 -5.19779 10
    endloop
  endfacet
  facet normal -0.951057 0.309017 0
    outer loop
      vertex 24.4537 -5.19779 21.5
      vertex 22.8386 -10.1684 10
      vertex 22.8386 -10.1684 21.5
    endloop
  endfacet
  facet normal 0.866025 0.5 0
    outer loop
      vertex -20.2254 -14.6946 21.5
      vertex -22.8386 -10.1684 10
      vertex -22.8386 -10.1684 21.5
    endloop
  endfacet
  facet normal 0.866025 0.5 0
    outer loop
      vertex -22.8386 -10.1684 10
      vertex -20.2254 -14.6946 21.5
      vertex -20.2254 -14.6946 10
    endloop
  endfacet
  facet normal -0.587785 0.809017 0
    outer loop
      vertex 16.7283 -18.5786 10
      vertex 12.5 -21.6506 21.5
      vertex 16.7283 -18.5786 21.5
    endloop
  endfacet
  facet normal -0.587785 0.809017 0
    outer loop
      vertex 12.5 -21.6506 21.5
      vertex 16.7283 -18.5786 10
      vertex 12.5 -21.6506 10
    endloop
  endfacet
  facet normal -0.866025 0.5 0
    outer loop
      vertex 20.2254 -14.6946 10
      vertex 22.8386 -10.1684 21.5
      vertex 22.8386 -10.1684 10
    endloop
  endfacet
  facet normal -0.866025 0.5 0
    outer loop
      vertex 22.8386 -10.1684 21.5
      vertex 20.2254 -14.6946 10
      vertex 20.2254 -14.6946 21.5
    endloop
  endfacet
  facet normal 0 1 -0
    outer loop
      vertex 2.61321 -24.863 10
      vertex -2.61321 -24.863 21.5
      vertex 2.61321 -24.863 21.5
    endloop
  endfacet
  facet normal 0 1 0
    outer loop
      vertex -2.61321 -24.863 21.5
      vertex 2.61321 -24.863 10
      vertex -2.61321 -24.863 10
    endloop
  endfacet
  facet normal 0.994522 0.104529 0
    outer loop
      vertex -24.4537 -5.19779 21.5
      vertex -25 0 10
      vertex -25 0 21.5
    endloop
  endfacet
  facet normal 0.994522 0.104529 0
    outer loop
      vertex -25 0 10
      vertex -24.4537 -5.19779 21.5
      vertex -24.4537 -5.19779 10
    endloop
  endfacet
  facet normal -0.406737 0.913545 0
    outer loop
      vertex 12.5 -21.6506 10
      vertex 7.72542 -23.7764 21.5
      vertex 12.5 -21.6506 21.5
    endloop
  endfacet
  facet normal -0.406737 0.913545 0
    outer loop
      vertex 7.72542 -23.7764 21.5
      vertex 12.5 -21.6506 10
      vertex 7.72542 -23.7764 10
    endloop
  endfacet
  facet normal 0.207912 0.978148 -0
    outer loop
      vertex -2.61321 -24.863 10
      vertex -7.72542 -23.7764 21.5
      vertex -2.61321 -24.863 21.5
    endloop
  endfacet
  facet normal 0.207912 0.978148 0
    outer loop
      vertex -7.72542 -23.7764 21.5
      vertex -2.61321 -24.863 10
      vertex -7.72542 -23.7764 10
    endloop
  endfacet
  facet normal 0.951057 0.309017 0
    outer loop
      vertex -22.8386 -10.1684 21.5
      vertex -24.4537 -5.19779 10
      vertex -24.4537 -5.19779 21.5
    endloop
  endfacet
  facet normal 0.951057 0.309017 0
    outer loop
      vertex -24.4537 -5.19779 10
      vertex -22.8386 -10.1684 21.5
      vertex -22.8386 -10.1684 10
    endloop
  endfacet
  facet normal 0.743145 0.669131 0
    outer loop
      vertex -16.7283 -18.5786 21.5
      vertex -20.2254 -14.6946 10
      vertex -20.2254 -14.6946 21.5
    endloop
  endfacet
  facet normal 0.743145 0.669131 0
    outer loop
      vertex -20.2254 -14.6946 10
      vertex -16.7283 -18.5786 21.5
      vertex -16.7283 -18.5786 10
    endloop
  endfacet
  facet normal -0.743145 0.669131 0
    outer loop
      vertex 16.7283 -18.5786 10
      vertex 20.2254 -14.6946 21.5
      vertex 20.2254 -14.6946 10
    endloop
  endfacet
  facet normal -0.743145 0.669131 0
    outer loop
      vertex 20.2254 -14.6946 21.5
      vertex 16.7283 -18.5786 10
      vertex 16.7283 -18.5786 21.5
    endloop
  endfacet
  facet normal 0.406737 0.913545 -0
    outer loop
      vertex -7.72542 -23.7764 10
      vertex -12.5 -21.6506 21.5
      vertex -7.72542 -23.7764 21.5
    endloop
  endfacet
  facet normal 0.406737 0.913545 0
    outer loop
      vertex -12.5 -21.6506 21.5
      vertex -7.72542 -23.7764 10
      vertex -12.5 -21.6506 10
    endloop
  endfacet
  facet normal 0.587785 0.809017 -0
    outer loop
      vertex -12.5 -21.6506 10
      vertex -16.7283 -18.5786 21.5
      vertex -12.5 -21.6506 21.5
    endloop
  endfacet
  facet normal 0.587785 0.809017 0
    outer loop
      vertex -16.7283 -18.5786 21.5
      vertex -12.5 -21.6506 10
      vertex -16.7283 -18.5786 10
    endloop
  endfacet
  facet normal -1 0 0
    outer loop
      vertex -27.75 31.75 0
      vertex -27.75 27.75 4
      vertex -27.75 31.75 14
    endloop
  endfacet
  facet normal -1 0 0
    outer loop
      vertex -27.75 12.6014 0
      vertex -27.75 27.75 4
      vertex -27.75 31.75 0
    endloop
  endfacet
  facet normal -1 0 0
    outer loop
      vertex -27.75 -12.6014 0
      vertex -27.75 27.75 4
      vertex -27.75 12.6014 0
    endloop
  endfacet
  facet normal -1 0 0
    outer loop
      vertex -27.75 -12.6014 0
      vertex -27.75 -27.75 4
      vertex -27.75 27.75 4
    endloop
  endfacet
  facet normal -1 -0 0
    outer loop
      vertex -27.75 -27.75 4
      vertex -27.75 -31.75 0
      vertex -27.75 -27.75 10
    endloop
  endfacet
  facet normal -1 0 0
    outer loop
      vertex -27.75 -31.75 0
      vertex -27.75 -27.75 4
      vertex -27.75 -12.6014 0
    endloop
  endfacet
  facet normal -1 0 0
    outer loop
      vertex -27.75 27.75 10
      vertex -27.75 31.75 14
      vertex -27.75 27.75 4
    endloop
  endfacet
  facet normal -1 0 0
    outer loop
      vertex -27.75 27.75 10
      vertex -27.75 13.5959 14
      vertex -27.75 31.75 14
    endloop
  endfacet
  facet normal -1 0 0
    outer loop
      vertex -27.75 27.75 10
      vertex -27.75 -13.5959 14
      vertex -27.75 13.5959 14
    endloop
  endfacet
  facet normal -1 0 0
    outer loop
      vertex -27.75 -27.75 10
      vertex -27.75 -13.5959 14
      vertex -27.75 27.75 10
    endloop
  endfacet
  facet normal -1 0 0
    outer loop
      vertex -27.75 -27.75 10
      vertex -27.75 -31.75 14
      vertex -27.75 -13.5959 14
    endloop
  endfacet
  facet normal -1 0 0
    outer loop
      vertex -27.75 -31.75 14
      vertex -27.75 -27.75 10
      vertex -27.75 -31.75 0
    endloop
  endfacet
  facet normal 1 -0 0
    outer loop
      vertex 31.75 -31.75 14
      vertex 31.75 31.75 0
      vertex 31.75 31.75 14
    endloop
  endfacet
  facet normal 1 0 0
    outer loop
      vertex 31.75 31.75 0
      vertex 31.75 -31.75 14
      vertex 31.75 -31.75 0
    endloop
  endfacet
  facet normal 0 1 -0
    outer loop
      vertex 31.75 31.75 0
      vertex -27.75 31.75 14
      vertex 31.75 31.75 14
    endloop
  endfacet
  facet normal 0 1 0
    outer loop
      vertex -27.75 31.75 14
      vertex 31.75 31.75 0
      vertex -27.75 31.75 0
    endloop
  endfacet
  facet normal 0 0 -1
    outer loop
      vertex 31.75 -31.75 0
      vertex 30.5 0 0
      vertex 31.75 31.75 0
    endloop
  endfacet
  facet normal 0 0 -1
    outer loop
      vertex 31.75 -31.75 0
      vertex 29.8335 -6.34131 0
      vertex 30.5 0 0
    endloop
  endfacet
  facet normal 0 0 -1
    outer loop
      vertex 31.75 -31.75 0
      vertex 27.8631 -12.4055 0
      vertex 29.8335 -6.34131 0
    endloop
  endfacet
  facet normal 0 0 -1
    outer loop
      vertex 31.75 -31.75 0
      vertex 24.675 -17.9275 0
      vertex 27.8631 -12.4055 0
    endloop
  endfacet
  facet normal 0 0 -1
    outer loop
      vertex 31.75 -31.75 0
      vertex 20.4085 -22.6659 0
      vertex 24.675 -17.9275 0
    endloop
  endfacet
  facet normal 0 0 -1
    outer loop
      vertex 31.75 -31.75 0
      vertex 15.25 -26.4138 0
      vertex 20.4085 -22.6659 0
    endloop
  endfacet
  facet normal 0 0 -1
    outer loop
      vertex 31.75 -31.75 0
      vertex 9.42502 -29.0072 0
      vertex 15.25 -26.4138 0
    endloop
  endfacet
  facet normal 0 0 -1
    outer loop
      vertex 31.75 -31.75 0
      vertex 3.18812 -30.3329 0
      vertex 9.42502 -29.0072 0
    endloop
  endfacet
  facet normal 0 0 -1
    outer loop
      vertex 31.75 -31.75 0
      vertex -3.18812 -30.3329 0
      vertex 3.18812 -30.3329 0
    endloop
  endfacet
  facet normal 0 0 -1
    outer loop
      vertex -27.75 -31.75 0
      vertex -3.18812 -30.3329 0
      vertex 31.75 -31.75 0
    endloop
  endfacet
  facet normal 0 0 -1
    outer loop
      vertex -27.75 -31.75 0
      vertex -9.42502 -29.0072 0
      vertex -3.18812 -30.3329 0
    endloop
  endfacet
  facet normal 0 0 -1
    outer loop
      vertex -27.75 -31.75 0
      vertex -15.25 -26.4138 0
      vertex -9.42502 -29.0072 0
    endloop
  endfacet
  facet normal 0 0 -1
    outer loop
      vertex -27.75 -31.75 0
      vertex -20.4085 -22.6659 0
      vertex -15.25 -26.4138 0
    endloop
  endfacet
  facet normal 0 0 -1
    outer loop
      vertex -27.75 -31.75 0
      vertex -24.675 -17.9275 0
      vertex -20.4085 -22.6659 0
    endloop
  endfacet
  facet normal -0 0 -1
    outer loop
      vertex -24.675 -17.9275 0
      vertex -27.75 -31.75 0
      vertex -27.75 -12.6014 0
    endloop
  endfacet
  facet normal 0 0 -1
    outer loop
      vertex 29.8335 6.34131 0
      vertex 31.75 31.75 0
      vertex 30.5 0 0
    endloop
  endfacet
  facet normal 0 0 -1
    outer loop
      vertex 27.8631 12.4055 0
      vertex 31.75 31.75 0
      vertex 29.8335 6.34131 0
    endloop
  endfacet
  facet normal 0 0 -1
    outer loop
      vertex 24.675 17.9275 0
      vertex 31.75 31.75 0
      vertex 27.8631 12.4055 0
    endloop
  endfacet
  facet normal 0 0 -1
    outer loop
      vertex 20.4085 22.6659 0
      vertex 31.75 31.75 0
      vertex 24.675 17.9275 0
    endloop
  endfacet
  facet normal 0 0 -1
    outer loop
      vertex 15.25 26.4138 0
      vertex 31.75 31.75 0
      vertex 20.4085 22.6659 0
    endloop
  endfacet
  facet normal 0 0 -1
    outer loop
      vertex 9.42502 29.0072 0
      vertex 31.75 31.75 0
      vertex 15.25 26.4138 0
    endloop
  endfacet
  facet normal 0 0 -1
    outer loop
      vertex 3.18812 30.3329 0
      vertex 31.75 31.75 0
      vertex 9.42502 29.0072 0
    endloop
  endfacet
  facet normal 0 0 -1
    outer loop
      vertex -3.18812 30.3329 0
      vertex 31.75 31.75 0
      vertex 3.18812 30.3329 0
    endloop
  endfacet
  facet normal 0 0 -1
    outer loop
      vertex -3.18812 30.3329 0
      vertex -27.75 31.75 0
      vertex 31.75 31.75 0
    endloop
  endfacet
  facet normal 0 0 -1
    outer loop
      vertex -9.42502 29.0072 0
      vertex -27.75 31.75 0
      vertex -3.18812 30.3329 0
    endloop
  endfacet
  facet normal 0 0 -1
    outer loop
      vertex -15.25 26.4138 0
      vertex -27.75 31.75 0
      vertex -9.42502 29.0072 0
    endloop
  endfacet
  facet normal 0 0 -1
    outer loop
      vertex -20.4085 22.6659 0
      vertex -27.75 31.75 0
      vertex -15.25 26.4138 0
    endloop
  endfacet
  facet normal 0 0 -1
    outer loop
      vertex -24.675 17.9275 0
      vertex -27.75 31.75 0
      vertex -20.4085 22.6659 0
    endloop
  endfacet
  facet normal 0 0 -1
    outer loop
      vertex -27.75 31.75 0
      vertex -24.675 17.9275 0
      vertex -27.75 12.6014 0
    endloop
  endfacet
  facet normal 0 0 1
    outer loop
      vertex -29.8335 6.34131 0
      vertex -27.75 12.6014 0
      vertex -27.8631 12.4055 0
    endloop
  endfacet
  facet normal 0 0 1
    outer loop
      vertex -27.75 12.6014 0
      vertex -29.8335 6.34131 0
      vertex -27.75 -12.6014 0
    endloop
  endfacet
  facet normal -0 0 1
    outer loop
      vertex -29.8335 -6.34131 0
      vertex -27.75 -12.6014 0
      vertex -29.8335 6.34131 0
    endloop
  endfacet
  facet normal 0 0 1
    outer loop
      vertex -27.75 -12.6014 0
      vertex -29.8335 -6.34131 0
      vertex -27.8631 -12.4055 0
    endloop
  endfacet
  facet normal 0 -0 1
    outer loop
      vertex -29.8335 -6.34131 0
      vertex -29.8335 6.34131 0
      vertex -30.5 0 0
    endloop
  endfacet
  facet normal 0 -1 0
    outer loop
      vertex -27.75 -31.75 0
      vertex 31.75 -31.75 14
      vertex -27.75 -31.75 14
    endloop
  endfacet
  facet normal 0 -1 -0
    outer loop
      vertex 31.75 -31.75 14
      vertex -27.75 -31.75 0
      vertex 31.75 -31.75 0
    endloop
  endfacet
  facet normal 0 0 -1
    outer loop
      vertex 27.75 -27.75 10
      vertex 25 0 10
      vertex 27.75 27.75 10
    endloop
  endfacet
  facet normal 0 0 -1
    outer loop
      vertex 27.75 -27.75 10
      vertex 24.4537 -5.19779 10
      vertex 25 0 10
    endloop
  endfacet
  facet normal 0 0 -1
    outer loop
      vertex 27.75 -27.75 10
      vertex 22.8386 -10.1684 10
      vertex 24.4537 -5.19779 10
    endloop
  endfacet
  facet normal 0 0 -1
    outer loop
      vertex 27.75 -27.75 10
      vertex 20.2254 -14.6946 10
      vertex 22.8386 -10.1684 10
    endloop
  endfacet
  facet normal 0 0 -1
    outer loop
      vertex 27.75 -27.75 10
      vertex 16.7283 -18.5786 10
      vertex 20.2254 -14.6946 10
    endloop
  endfacet
  facet normal 0 0 -1
    outer loop
      vertex 27.75 -27.75 10
      vertex 12.5 -21.6506 10
      vertex 16.7283 -18.5786 10
    endloop
  endfacet
  facet normal 0 0 -1
    outer loop
      vertex 27.75 -27.75 10
      vertex 7.72542 -23.7764 10
      vertex 12.5 -21.6506 10
    endloop
  endfacet
  facet normal 0 0 -1
    outer loop
      vertex 27.75 -27.75 10
      vertex 2.61321 -24.863 10
      vertex 7.72542 -23.7764 10
    endloop
  endfacet
  facet normal 0 0 -1
    outer loop
      vertex 27.75 -27.75 10
      vertex -2.61321 -24.863 10
      vertex 2.61321 -24.863 10
    endloop
  endfacet
  facet normal -0 0 -1
    outer loop
      vertex -24.4537 -5.19779 10
      vertex -27.75 -27.75 10
      vertex -25 0 10
    endloop
  endfacet
  facet normal -0 0 -1
    outer loop
      vertex -22.8386 -10.1684 10
      vertex -27.75 -27.75 10
      vertex -24.4537 -5.19779 10
    endloop
  endfacet
  facet normal -0 0 -1
    outer loop
      vertex -20.2254 -14.6946 10
      vertex -27.75 -27.75 10
      vertex -22.8386 -10.1684 10
    endloop
  endfacet
  facet normal -0 0 -1
    outer loop
      vertex -16.7283 -18.5786 10
      vertex -27.75 -27.75 10
      vertex -20.2254 -14.6946 10
    endloop
  endfacet
  facet normal -0 0 -1
    outer loop
      vertex -12.5 -21.6506 10
      vertex -27.75 -27.75 10
      vertex -16.7283 -18.5786 10
    endloop
  endfacet
  facet normal -0 0 -1
    outer loop
      vertex -7.72542 -23.7764 10
      vertex -27.75 -27.75 10
      vertex -12.5 -21.6506 10
    endloop
  endfacet
  facet normal -0 0 -1
    outer loop
      vertex -2.61321 -24.863 10
      vertex -27.75 -27.75 10
      vertex -7.72542 -23.7764 10
    endloop
  endfacet
  facet normal 0 0 -1
    outer loop
      vertex -27.75 -27.75 10
      vertex -2.61321 -24.863 10
      vertex 27.75 -27.75 10
    endloop
  endfacet
  facet normal 0 0 -1
    outer loop
      vertex 24.4537 5.19779 10
      vertex 27.75 27.75 10
      vertex 25 0 10
    endloop
  endfacet
  facet normal 0 0 -1
    outer loop
      vertex 22.8386 10.1684 10
      vertex 27.75 27.75 10
      vertex 24.4537 5.19779 10
    endloop
  endfacet
  facet normal 0 0 -1
    outer loop
      vertex 20.2254 14.6946 10
      vertex 27.75 27.75 10
      vertex 22.8386 10.1684 10
    endloop
  endfacet
  facet normal 0 0 -1
    outer loop
      vertex 16.7283 18.5786 10
      vertex 27.75 27.75 10
      vertex 20.2254 14.6946 10
    endloop
  endfacet
  facet normal 0 0 -1
    outer loop
      vertex 12.5 21.6506 10
      vertex 27.75 27.75 10
      vertex 16.7283 18.5786 10
    endloop
  endfacet
  facet normal 0 0 -1
    outer loop
      vertex 7.72542 23.7764 10
      vertex 27.75 27.75 10
      vertex 12.5 21.6506 10
    endloop
  endfacet
  facet normal 0 0 -1
    outer loop
      vertex 2.61321 24.863 10
      vertex 27.75 27.75 10
      vertex 7.72542 23.7764 10
    endloop
  endfacet
  facet normal 0 0 -1
    outer loop
      vertex -2.61321 24.863 10
      vertex 27.75 27.75 10
      vertex 2.61321 24.863 10
    endloop
  endfacet
  facet normal 0 0 -1
    outer loop
      vertex -2.61321 24.863 10
      vertex -27.75 27.75 10
      vertex 27.75 27.75 10
    endloop
  endfacet
  facet normal 0 0 -1
    outer loop
      vertex -7.72542 23.7764 10
      vertex -27.75 27.75 10
      vertex -2.61321 24.863 10
    endloop
  endfacet
  facet normal 0 0 -1
    outer loop
      vertex -12.5 21.6506 10
      vertex -27.75 27.75 10
      vertex -7.72542 23.7764 10
    endloop
  endfacet
  facet normal 0 0 -1
    outer loop
      vertex -16.7283 18.5786 10
      vertex -27.75 27.75 10
      vertex -12.5 21.6506 10
    endloop
  endfacet
  facet normal 0 0 -1
    outer loop
      vertex -20.2254 14.6946 10
      vertex -27.75 27.75 10
      vertex -16.7283 18.5786 10
    endloop
  endfacet
  facet normal 0 0 -1
    outer loop
      vertex -22.8386 10.1684 10
      vertex -27.75 27.75 10
      vertex -20.2254 14.6946 10
    endloop
  endfacet
  facet normal 0 0 -1
    outer loop
      vertex -24.4537 5.19779 10
      vertex -27.75 27.75 10
      vertex -22.8386 10.1684 10
    endloop
  endfacet
  facet normal 0 0 -1
    outer loop
      vertex -25 0 10
      vertex -27.75 27.75 10
      vertex -24.4537 5.19779 10
    endloop
  endfacet
  facet normal 0 0 -1
    outer loop
      vertex -27.75 27.75 10
      vertex -25 0 10
      vertex -27.75 -27.75 10
    endloop
  endfacet
  facet normal -1 0 0
    outer loop
      vertex 27.75 -27.75 4
      vertex 27.75 27.75 10
      vertex 27.75 27.75 4
    endloop
  endfacet
  facet normal -1 -0 0
    outer loop
      vertex 27.75 27.75 10
      vertex 27.75 -27.75 4
      vertex 27.75 -27.75 10
    endloop
  endfacet
  facet normal 0 -1 0
    outer loop
      vertex -27.75 27.75 4
      vertex 27.75 27.75 10
      vertex -27.75 27.75 10
    endloop
  endfacet
  facet normal 0 -1 -0
    outer loop
      vertex 27.75 27.75 10
      vertex -27.75 27.75 4
      vertex 27.75 27.75 4
    endloop
  endfacet
  facet normal 0 0 1
    outer loop
      vertex 27.75 27.75 4
      vertex 25 0 4
      vertex 27.75 -27.75 4
    endloop
  endfacet
  facet normal 0 0 1
    outer loop
      vertex 27.75 27.75 4
      vertex 24.4537 5.19779 4
      vertex 25 0 4
    endloop
  endfacet
  facet normal 0 0 1
    outer loop
      vertex 27.75 27.75 4
      vertex 22.8386 10.1684 4
      vertex 24.4537 5.19779 4
    endloop
  endfacet
  facet normal 0 0 1
    outer loop
      vertex 27.75 27.75 4
      vertex 20.2254 14.6946 4
      vertex 22.8386 10.1684 4
    endloop
  endfacet
  facet normal 0 0 1
    outer loop
      vertex 27.75 27.75 4
      vertex 16.7283 18.5786 4
      vertex 20.2254 14.6946 4
    endloop
  endfacet
  facet normal 0 0 1
    outer loop
      vertex 27.75 27.75 4
      vertex 12.5 21.6506 4
      vertex 16.7283 18.5786 4
    endloop
  endfacet
  facet normal 0 0 1
    outer loop
      vertex 27.75 27.75 4
      vertex 7.72542 23.7764 4
      vertex 12.5 21.6506 4
    endloop
  endfacet
  facet normal 0 0 1
    outer loop
      vertex 27.75 27.75 4
      vertex 2.61321 24.863 4
      vertex 7.72542 23.7764 4
    endloop
  endfacet
  facet normal 0 0 1
    outer loop
      vertex 27.75 27.75 4
      vertex -2.61321 24.863 4
      vertex 2.61321 24.863 4
    endloop
  endfacet
  facet normal 0 0 1
    outer loop
      vertex -24.4537 5.19779 4
      vertex -27.75 27.75 4
      vertex -25 0 4
    endloop
  endfacet
  facet normal 0 0 1
    outer loop
      vertex -22.8386 10.1684 4
      vertex -27.75 27.75 4
      vertex -24.4537 5.19779 4
    endloop
  endfacet
  facet normal 0 0 1
    outer loop
      vertex -20.2254 14.6946 4
      vertex -27.75 27.75 4
      vertex -22.8386 10.1684 4
    endloop
  endfacet
  facet normal 0 0 1
    outer loop
      vertex -16.7283 18.5786 4
      vertex -27.75 27.75 4
      vertex -20.2254 14.6946 4
    endloop
  endfacet
  facet normal 0 0 1
    outer loop
      vertex -12.5 21.6506 4
      vertex -27.75 27.75 4
      vertex -16.7283 18.5786 4
    endloop
  endfacet
  facet normal 0 0 1
    outer loop
      vertex -7.72542 23.7764 4
      vertex -27.75 27.75 4
      vertex -12.5 21.6506 4
    endloop
  endfacet
  facet normal 0 0 1
    outer loop
      vertex -2.61321 24.863 4
      vertex -27.75 27.75 4
      vertex -7.72542 23.7764 4
    endloop
  endfacet
  facet normal -0 0 1
    outer loop
      vertex -27.75 27.75 4
      vertex -2.61321 24.863 4
      vertex 27.75 27.75 4
    endloop
  endfacet
  facet normal -0 0 1
    outer loop
      vertex 24.4537 -5.19779 4
      vertex 27.75 -27.75 4
      vertex 25 0 4
    endloop
  endfacet
  facet normal -0 0 1
    outer loop
      vertex 22.8386 -10.1684 4
      vertex 27.75 -27.75 4
      vertex 24.4537 -5.19779 4
    endloop
  endfacet
  facet normal -0 0 1
    outer loop
      vertex 20.2254 -14.6946 4
      vertex 27.75 -27.75 4
      vertex 22.8386 -10.1684 4
    endloop
  endfacet
  facet normal -0 0 1
    outer loop
      vertex 16.7283 -18.5786 4
      vertex 27.75 -27.75 4
      vertex 20.2254 -14.6946 4
    endloop
  endfacet
  facet normal -0 0 1
    outer loop
      vertex 12.5 -21.6506 4
      vertex 27.75 -27.75 4
      vertex 16.7283 -18.5786 4
    endloop
  endfacet
  facet normal -0 0 1
    outer loop
      vertex 7.72542 -23.7764 4
      vertex 27.75 -27.75 4
      vertex 12.5 -21.6506 4
    endloop
  endfacet
  facet normal -0 0 1
    outer loop
      vertex 2.61321 -24.863 4
      vertex 27.75 -27.75 4
      vertex 7.72542 -23.7764 4
    endloop
  endfacet
  facet normal -0 0 1
    outer loop
      vertex -2.61321 -24.863 4
      vertex 27.75 -27.75 4
      vertex 2.61321 -24.863 4
    endloop
  endfacet
  facet normal 0 0 1
    outer loop
      vertex -2.61321 -24.863 4
      vertex -27.75 -27.75 4
      vertex 27.75 -27.75 4
    endloop
  endfacet
  facet normal 0 0 1
    outer loop
      vertex -7.72542 -23.7764 4
      vertex -27.75 -27.75 4
      vertex -2.61321 -24.863 4
    endloop
  endfacet
  facet normal 0 0 1
    outer loop
      vertex -12.5 -21.6506 4
      vertex -27.75 -27.75 4
      vertex -7.72542 -23.7764 4
    endloop
  endfacet
  facet normal 0 0 1
    outer loop
      vertex -16.7283 -18.5786 4
      vertex -27.75 -27.75 4
      vertex -12.5 -21.6506 4
    endloop
  endfacet
  facet normal 0 0 1
    outer loop
      vertex -20.2254 -14.6946 4
      vertex -27.75 -27.75 4
      vertex -16.7283 -18.5786 4
    endloop
  endfacet
  facet normal 0 0 1
    outer loop
      vertex -22.8386 -10.1684 4
      vertex -27.75 -27.75 4
      vertex -20.2254 -14.6946 4
    endloop
  endfacet
  facet normal 0 0 1
    outer loop
      vertex -24.4537 -5.19779 4
      vertex -27.75 -27.75 4
      vertex -22.8386 -10.1684 4
    endloop
  endfacet
  facet normal 0 0 1
    outer loop
      vertex -25 0 4
      vertex -27.75 -27.75 4
      vertex -24.4537 -5.19779 4
    endloop
  endfacet
  facet normal 0 0 1
    outer loop
      vertex -27.75 -27.75 4
      vertex -25 0 4
      vertex -27.75 27.75 4
    endloop
  endfacet
  facet normal 0 1 -0
    outer loop
      vertex 27.75 -27.75 4
      vertex -27.75 -27.75 10
      vertex 27.75 -27.75 10
    endloop
  endfacet
  facet normal 0 1 0
    outer loop
      vertex -27.75 -27.75 10
      vertex 27.75 -27.75 4
      vertex -27.75 -27.75 4
    endloop
  endfacet
  facet normal -0.994522 -0.104529 0
    outer loop
      vertex 25 0 -4.5
      vertex 24.4537 5.19779 4
      vertex 24.4537 5.19779 -4.5
    endloop
  endfacet
  facet normal -0.994522 -0.104529 0
    outer loop
      vertex 24.4537 5.19779 4
      vertex 25 0 -4.5
      vertex 25 0 4
    endloop
  endfacet
  facet normal 0.994522 -0.104529 0
    outer loop
      vertex -25 0 4
      vertex -24.4537 5.19779 -4.5
      vertex -24.4537 5.19779 4
    endloop
  endfacet
  facet normal 0.994522 -0.104529 0
    outer loop
      vertex -24.4537 5.19779 -4.5
      vertex -25 0 4
      vertex -25 0 -4.5
    endloop
  endfacet
  facet normal 0 -1 0
    outer loop
      vertex -2.61321 24.863 -4.5
      vertex 2.61321 24.863 4
      vertex -2.61321 24.863 4
    endloop
  endfacet
  facet normal 0 -1 -0
    outer loop
      vertex 2.61321 24.863 4
      vertex -2.61321 24.863 -4.5
      vertex 2.61321 24.863 -4.5
    endloop
  endfacet
  facet normal 0 1 -0
    outer loop
      vertex 2.61321 -24.863 -4.5
      vertex -2.61321 -24.863 4
      vertex 2.61321 -24.863 4
    endloop
  endfacet
  facet normal 0 1 0
    outer loop
      vertex -2.61321 -24.863 4
      vertex 2.61321 -24.863 -4.5
      vertex -2.61321 -24.863 -4.5
    endloop
  endfacet
  facet normal -0.587785 -0.809017 0
    outer loop
      vertex 12.5 21.6506 -4.5
      vertex 16.7283 18.5786 4
      vertex 12.5 21.6506 4
    endloop
  endfacet
  facet normal -0.587785 -0.809017 -0
    outer loop
      vertex 16.7283 18.5786 4
      vertex 12.5 21.6506 -4.5
      vertex 16.7283 18.5786 -4.5
    endloop
  endfacet
  facet normal 0.743145 -0.669131 0
    outer loop
      vertex -20.2254 14.6946 4
      vertex -16.7283 18.5786 -4.5
      vertex -16.7283 18.5786 4
    endloop
  endfacet
  facet normal 0.743145 -0.669131 0
    outer loop
      vertex -16.7283 18.5786 -4.5
      vertex -20.2254 14.6946 4
      vertex -20.2254 14.6946 -4.5
    endloop
  endfacet
  facet normal 0.866025 -0.5 0
    outer loop
      vertex -22.8386 10.1684 4
      vertex -20.2254 14.6946 -4.5
      vertex -20.2254 14.6946 4
    endloop
  endfacet
  facet normal 0.866025 -0.5 0
    outer loop
      vertex -20.2254 14.6946 -4.5
      vertex -22.8386 10.1684 4
      vertex -22.8386 10.1684 -4.5
    endloop
  endfacet
  facet normal 0.406737 -0.913545 0
    outer loop
      vertex -12.5 21.6506 -4.5
      vertex -7.72542 23.7764 4
      vertex -12.5 21.6506 4
    endloop
  endfacet
  facet normal 0.406737 -0.913545 0
    outer loop
      vertex -7.72542 23.7764 4
      vertex -12.5 21.6506 -4.5
      vertex -7.72542 23.7764 -4.5
    endloop
  endfacet
  facet normal -0.951057 0.309017 0
    outer loop
      vertex 22.8386 -10.1684 -4.5
      vertex 24.4537 -5.19779 4
      vertex 24.4537 -5.19779 -4.5
    endloop
  endfacet
  facet normal -0.951057 0.309017 0
    outer loop
      vertex 24.4537 -5.19779 4
      vertex 22.8386 -10.1684 -4.5
      vertex 22.8386 -10.1684 4
    endloop
  endfacet
  facet normal -0.866025 -0.5 0
    outer loop
      vertex 22.8386 10.1684 -4.5
      vertex 20.2254 14.6946 4
      vertex 20.2254 14.6946 -4.5
    endloop
  endfacet
  facet normal -0.866025 -0.5 0
    outer loop
      vertex 20.2254 14.6946 4
      vertex 22.8386 10.1684 -4.5
      vertex 22.8386 10.1684 4
    endloop
  endfacet
  facet normal -0.951057 -0.309017 0
    outer loop
      vertex 24.4537 5.19779 -4.5
      vertex 22.8386 10.1684 4
      vertex 22.8386 10.1684 -4.5
    endloop
  endfacet
  facet normal -0.951057 -0.309017 0
    outer loop
      vertex 22.8386 10.1684 4
      vertex 24.4537 5.19779 -4.5
      vertex 24.4537 5.19779 4
    endloop
  endfacet
  facet normal -0.743145 -0.669131 0
    outer loop
      vertex 20.2254 14.6946 -4.5
      vertex 16.7283 18.5786 4
      vertex 16.7283 18.5786 -4.5
    endloop
  endfacet
  facet normal -0.743145 -0.669131 0
    outer loop
      vertex 16.7283 18.5786 4
      vertex 20.2254 14.6946 -4.5
      vertex 20.2254 14.6946 4
    endloop
  endfacet
  facet normal -0.207912 -0.978148 0
    outer loop
      vertex 2.61321 24.863 -4.5
      vertex 7.72542 23.7764 4
      vertex 2.61321 24.863 4
    endloop
  endfacet
  facet normal -0.207912 -0.978148 -0
    outer loop
      vertex 7.72542 23.7764 4
      vertex 2.61321 24.863 -4.5
      vertex 7.72542 23.7764 -4.5
    endloop
  endfacet
  facet normal -0.406737 -0.913545 0
    outer loop
      vertex 7.72542 23.7764 -4.5
      vertex 12.5 21.6506 4
      vertex 7.72542 23.7764 4
    endloop
  endfacet
  facet normal -0.406737 -0.913545 -0
    outer loop
      vertex 12.5 21.6506 4
      vertex 7.72542 23.7764 -4.5
      vertex 12.5 21.6506 -4.5
    endloop
  endfacet
  facet normal 0.951057 -0.309017 0
    outer loop
      vertex -24.4537 5.19779 4
      vertex -22.8386 10.1684 -4.5
      vertex -22.8386 10.1684 4
    endloop
  endfacet
  facet normal 0.951057 -0.309017 0
    outer loop
      vertex -22.8386 10.1684 -4.5
      vertex -24.4537 5.19779 4
      vertex -24.4537 5.19779 -4.5
    endloop
  endfacet
  facet normal 0.587785 -0.809017 0
    outer loop
      vertex -16.7283 18.5786 -4.5
      vertex -12.5 21.6506 4
      vertex -16.7283 18.5786 4
    endloop
  endfacet
  facet normal 0.587785 -0.809017 0
    outer loop
      vertex -12.5 21.6506 4
      vertex -16.7283 18.5786 -4.5
      vertex -12.5 21.6506 -4.5
    endloop
  endfacet
  facet normal 0.207912 -0.978148 0
    outer loop
      vertex -7.72542 23.7764 -4.5
      vertex -2.61321 24.863 4
      vertex -7.72542 23.7764 4
    endloop
  endfacet
  facet normal 0.207912 -0.978148 0
    outer loop
      vertex -2.61321 24.863 4
      vertex -7.72542 23.7764 -4.5
      vertex -2.61321 24.863 -4.5
    endloop
  endfacet
  facet normal -0.994522 0.104529 0
    outer loop
      vertex 24.4537 -5.19779 -4.5
      vertex 25 0 4
      vertex 25 0 -4.5
    endloop
  endfacet
  facet normal -0.994522 0.104529 0
    outer loop
      vertex 25 0 4
      vertex 24.4537 -5.19779 -4.5
      vertex 24.4537 -5.19779 4
    endloop
  endfacet
  facet normal -0.866025 0.5 0
    outer loop
      vertex 20.2254 -14.6946 -4.5
      vertex 22.8386 -10.1684 4
      vertex 22.8386 -10.1684 -4.5
    endloop
  endfacet
  facet normal -0.866025 0.5 0
    outer loop
      vertex 22.8386 -10.1684 4
      vertex 20.2254 -14.6946 -4.5
      vertex 20.2254 -14.6946 4
    endloop
  endfacet
  facet normal 0.866025 0.5 0
    outer loop
      vertex -20.2254 -14.6946 4
      vertex -22.8386 -10.1684 -4.5
      vertex -22.8386 -10.1684 4
    endloop
  endfacet
  facet normal 0.866025 0.5 0
    outer loop
      vertex -22.8386 -10.1684 -4.5
      vertex -20.2254 -14.6946 4
      vertex -20.2254 -14.6946 -4.5
    endloop
  endfacet
  facet normal -0.587785 0.809017 0
    outer loop
      vertex 16.7283 -18.5786 -4.5
      vertex 12.5 -21.6506 4
      vertex 16.7283 -18.5786 4
    endloop
  endfacet
  facet normal -0.587785 0.809017 0
    outer loop
      vertex 12.5 -21.6506 4
      vertex 16.7283 -18.5786 -4.5
      vertex 12.5 -21.6506 -4.5
    endloop
  endfacet
  facet normal 0.207912 0.978148 -0
    outer loop
      vertex -2.61321 -24.863 -4.5
      vertex -7.72542 -23.7764 4
      vertex -2.61321 -24.863 4
    endloop
  endfacet
  facet normal 0.207912 0.978148 0
    outer loop
      vertex -7.72542 -23.7764 4
      vertex -2.61321 -24.863 -4.5
      vertex -7.72542 -23.7764 -4.5
    endloop
  endfacet
  facet normal 0.743145 0.669131 0
    outer loop
      vertex -16.7283 -18.5786 4
      vertex -20.2254 -14.6946 -4.5
      vertex -20.2254 -14.6946 4
    endloop
  endfacet
  facet normal 0.743145 0.669131 0
    outer loop
      vertex -20.2254 -14.6946 -4.5
      vertex -16.7283 -18.5786 4
      vertex -16.7283 -18.5786 -4.5
    endloop
  endfacet
  facet normal 0.951057 0.309017 0
    outer loop
      vertex -22.8386 -10.1684 4
      vertex -24.4537 -5.19779 -4.5
      vertex -24.4537 -5.19779 4
    endloop
  endfacet
  facet normal 0.951057 0.309017 0
    outer loop
      vertex -24.4537 -5.19779 -4.5
      vertex -22.8386 -10.1684 4
      vertex -22.8386 -10.1684 -4.5
    endloop
  endfacet
  facet normal 0.994522 0.104529 0
    outer loop
      vertex -24.4537 -5.19779 4
      vertex -25 0 -4.5
      vertex -25 0 4
    endloop
  endfacet
  facet normal 0.994522 0.104529 0
    outer loop
      vertex -25 0 -4.5
      vertex -24.4537 -5.19779 4
      vertex -24.4537 -5.19779 -4.5
    endloop
  endfacet
  facet normal -0.406737 0.913545 0
    outer loop
      vertex 12.5 -21.6506 -4.5
      vertex 7.72542 -23.7764 4
      vertex 12.5 -21.6506 4
    endloop
  endfacet
  facet normal -0.406737 0.913545 0
    outer loop
      vertex 7.72542 -23.7764 4
      vertex 12.5 -21.6506 -4.5
      vertex 7.72542 -23.7764 -4.5
    endloop
  endfacet
  facet normal -0.207912 0.978148 0
    outer loop
      vertex 7.72542 -23.7764 -4.5
      vertex 2.61321 -24.863 4
      vertex 7.72542 -23.7764 4
    endloop
  endfacet
  facet normal -0.207912 0.978148 0
    outer loop
      vertex 2.61321 -24.863 4
      vertex 7.72542 -23.7764 -4.5
      vertex 2.61321 -24.863 -4.5
    endloop
  endfacet
  facet normal -0.743145 0.669131 0
    outer loop
      vertex 16.7283 -18.5786 -4.5
      vertex 20.2254 -14.6946 4
      vertex 20.2254 -14.6946 -4.5
    endloop
  endfacet
  facet normal -0.743145 0.669131 0
    outer loop
      vertex 20.2254 -14.6946 4
      vertex 16.7283 -18.5786 -4.5
      vertex 16.7283 -18.5786 4
    endloop
  endfacet
  facet normal 0.406737 0.913545 -0
    outer loop
      vertex -7.72542 -23.7764 -4.5
      vertex -12.5 -21.6506 4
      vertex -7.72542 -23.7764 4
    endloop
  endfacet
  facet normal 0.406737 0.913545 0
    outer loop
      vertex -12.5 -21.6506 4
      vertex -7.72542 -23.7764 -4.5
      vertex -12.5 -21.6506 -4.5
    endloop
  endfacet
  facet normal 0.587785 0.809017 -0
    outer loop
      vertex -12.5 -21.6506 -4.5
      vertex -16.7283 -18.5786 4
      vertex -12.5 -21.6506 4
    endloop
  endfacet
  facet normal 0.587785 0.809017 0
    outer loop
      vertex -16.7283 -18.5786 4
      vertex -12.5 -21.6506 -4.5
      vertex -16.7283 -18.5786 -4.5
    endloop
  endfacet
  facet normal 0.866025 0.5 0
    outer loop
      vertex 27.8631 12.4055 0
      vertex 24.675 17.9275 -4.5
      vertex 24.675 17.9275 0
    endloop
  endfacet
  facet normal 0.866025 0.5 0
    outer loop
      vertex 24.675 17.9275 -4.5
      vertex 27.8631 12.4055 0
      vertex 27.8631 12.4055 -4.5
    endloop
  endfacet
  facet normal -0.994522 0.104528 0
    outer loop
      vertex -30.5 0 -4.5
      vertex -29.8335 6.34131 0
      vertex -29.8335 6.34131 -4.5
    endloop
  endfacet
  facet normal -0.994522 0.104528 0
    outer loop
      vertex -29.8335 6.34131 0
      vertex -30.5 0 -4.5
      vertex -30.5 0 0
    endloop
  endfacet
  facet normal -0.866026 -0.499999 0
    outer loop
      vertex -27.8631 -12.4055 -4.5
      vertex -27.75 -12.6014 0
      vertex -27.8631 -12.4055 0
    endloop
  endfacet
  facet normal -0.866025 -0.5 -3.3693e-008
    outer loop
      vertex -24.675 -17.9275 -4.5
      vertex -27.75 -12.6014 0
      vertex -27.8631 -12.4055 -4.5
    endloop
  endfacet
  facet normal -0.866025 -0.5 0
    outer loop
      vertex -27.75 -12.6014 0
      vertex -24.675 -17.9275 -4.5
      vertex -24.675 -17.9275 0
    endloop
  endfacet
  facet normal 0 1 -0
    outer loop
      vertex 3.18812 30.3329 -4.5
      vertex -3.18812 30.3329 0
      vertex 3.18812 30.3329 0
    endloop
  endfacet
  facet normal 0 1 0
    outer loop
      vertex -3.18812 30.3329 0
      vertex 3.18812 30.3329 -4.5
      vertex -3.18812 30.3329 -4.5
    endloop
  endfacet
  facet normal 0.743145 0.669131 0
    outer loop
      vertex 24.675 17.9275 0
      vertex 20.4085 22.6659 -4.5
      vertex 20.4085 22.6659 0
    endloop
  endfacet
  facet normal 0.743145 0.669131 0
    outer loop
      vertex 20.4085 22.6659 -4.5
      vertex 24.675 17.9275 0
      vertex 24.675 17.9275 -4.5
    endloop
  endfacet
  facet normal 0.207912 0.978148 -0
    outer loop
      vertex 9.42502 29.0072 -4.5
      vertex 3.18812 30.3329 0
      vertex 9.42502 29.0072 0
    endloop
  endfacet
  facet normal 0.207912 0.978148 0
    outer loop
      vertex 3.18812 30.3329 0
      vertex 9.42502 29.0072 -4.5
      vertex 3.18812 30.3329 -4.5
    endloop
  endfacet
  facet normal -0.406737 0.913545 0
    outer loop
      vertex -9.42502 29.0072 -4.5
      vertex -15.25 26.4138 0
      vertex -9.42502 29.0072 0
    endloop
  endfacet
  facet normal -0.406737 0.913545 0
    outer loop
      vertex -15.25 26.4138 0
      vertex -9.42502 29.0072 -4.5
      vertex -15.25 26.4138 -4.5
    endloop
  endfacet
  facet normal -0.951057 0.309017 0
    outer loop
      vertex -29.8335 6.34131 -4.5
      vertex -27.8631 12.4055 0
      vertex -27.8631 12.4055 -4.5
    endloop
  endfacet
  facet normal -0.951057 0.309017 0
    outer loop
      vertex -27.8631 12.4055 0
      vertex -29.8335 6.34131 -4.5
      vertex -29.8335 6.34131 0
    endloop
  endfacet
  facet normal 0.994522 -0.104528 0
    outer loop
      vertex 29.8335 -6.34131 0
      vertex 30.5 0 -4.5
      vertex 30.5 0 0
    endloop
  endfacet
  facet normal 0.994522 -0.104528 0
    outer loop
      vertex 30.5 0 -4.5
      vertex 29.8335 -6.34131 0
      vertex 29.8335 -6.34131 -4.5
    endloop
  endfacet
  facet normal 0.207912 -0.978148 0
    outer loop
      vertex 3.18812 -30.3329 -4.5
      vertex 9.42502 -29.0072 0
      vertex 3.18812 -30.3329 0
    endloop
  endfacet
  facet normal 0.207912 -0.978148 0
    outer loop
      vertex 9.42502 -29.0072 0
      vertex 3.18812 -30.3329 -4.5
      vertex 9.42502 -29.0072 -4.5
    endloop
  endfacet
  facet normal 0.951057 0.309017 0
    outer loop
      vertex 29.8335 6.34131 0
      vertex 27.8631 12.4055 -4.5
      vertex 27.8631 12.4055 0
    endloop
  endfacet
  facet normal 0.951057 0.309017 0
    outer loop
      vertex 27.8631 12.4055 -4.5
      vertex 29.8335 6.34131 0
      vertex 29.8335 6.34131 -4.5
    endloop
  endfacet
  facet normal 0.587785 0.809017 -0
    outer loop
      vertex 20.4085 22.6659 -4.5
      vertex 15.25 26.4138 0
      vertex 20.4085 22.6659 0
    endloop
  endfacet
  facet normal 0.587785 0.809017 0
    outer loop
      vertex 15.25 26.4138 0
      vertex 20.4085 22.6659 -4.5
      vertex 15.25 26.4138 -4.5
    endloop
  endfacet
  facet normal 0.406737 0.913545 -0
    outer loop
      vertex 15.25 26.4138 -4.5
      vertex 9.42502 29.0072 0
      vertex 15.25 26.4138 0
    endloop
  endfacet
  facet normal 0.406737 0.913545 0
    outer loop
      vertex 9.42502 29.0072 0
      vertex 15.25 26.4138 -4.5
      vertex 9.42502 29.0072 -4.5
    endloop
  endfacet
  facet normal -0.866025 0.5 0
    outer loop
      vertex -24.675 17.9275 -4.5
      vertex -27.75 12.6014 0
      vertex -24.675 17.9275 0
    endloop
  endfacet
  facet normal -0.866025 0.5 -3.3693e-008
    outer loop
      vertex -27.8631 12.4055 -4.5
      vertex -27.75 12.6014 0
      vertex -24.675 17.9275 -4.5
    endloop
  endfacet
  facet normal -0.866026 0.499999 0
    outer loop
      vertex -27.75 12.6014 0
      vertex -27.8631 12.4055 -4.5
      vertex -27.8631 12.4055 0
    endloop
  endfacet
  facet normal -0.587785 0.809017 0
    outer loop
      vertex -15.25 26.4138 -4.5
      vertex -20.4085 22.6659 0
      vertex -15.25 26.4138 0
    endloop
  endfacet
  facet normal -0.587785 0.809017 0
    outer loop
      vertex -20.4085 22.6659 0
      vertex -15.25 26.4138 -4.5
      vertex -20.4085 22.6659 -4.5
    endloop
  endfacet
  facet normal -0.207912 0.978148 0
    outer loop
      vertex -3.18812 30.3329 -4.5
      vertex -9.42502 29.0072 0
      vertex -3.18812 30.3329 0
    endloop
  endfacet
  facet normal -0.207912 0.978148 0
    outer loop
      vertex -9.42502 29.0072 0
      vertex -3.18812 30.3329 -4.5
      vertex -9.42502 29.0072 -4.5
    endloop
  endfacet
  facet normal -0.743145 0.669131 0
    outer loop
      vertex -24.675 17.9275 -4.5
      vertex -20.4085 22.6659 0
      vertex -20.4085 22.6659 -4.5
    endloop
  endfacet
  facet normal -0.743145 0.669131 0
    outer loop
      vertex -20.4085 22.6659 0
      vertex -24.675 17.9275 -4.5
      vertex -24.675 17.9275 0
    endloop
  endfacet
  facet normal 0.994522 0.104528 0
    outer loop
      vertex 30.5 0 0
      vertex 29.8335 6.34131 -4.5
      vertex 29.8335 6.34131 0
    endloop
  endfacet
  facet normal 0.994522 0.104528 0
    outer loop
      vertex 29.8335 6.34131 -4.5
      vertex 30.5 0 0
      vertex 30.5 0 -4.5
    endloop
  endfacet
  facet normal -0.207912 -0.978148 0
    outer loop
      vertex -9.42502 -29.0072 -4.5
      vertex -3.18812 -30.3329 0
      vertex -9.42502 -29.0072 0
    endloop
  endfacet
  facet normal -0.207912 -0.978148 -0
    outer loop
      vertex -3.18812 -30.3329 0
      vertex -9.42502 -29.0072 -4.5
      vertex -3.18812 -30.3329 -4.5
    endloop
  endfacet
  facet normal -0.994522 -0.104528 0
    outer loop
      vertex -29.8335 -6.34131 -4.5
      vertex -30.5 0 0
      vertex -30.5 0 -4.5
    endloop
  endfacet
  facet normal -0.994522 -0.104528 0
    outer loop
      vertex -30.5 0 0
      vertex -29.8335 -6.34131 -4.5
      vertex -29.8335 -6.34131 0
    endloop
  endfacet
  facet normal -0.951057 -0.309017 0
    outer loop
      vertex -27.8631 -12.4055 -4.5
      vertex -29.8335 -6.34131 0
      vertex -29.8335 -6.34131 -4.5
    endloop
  endfacet
  facet normal -0.951057 -0.309017 0
    outer loop
      vertex -29.8335 -6.34131 0
      vertex -27.8631 -12.4055 -4.5
      vertex -27.8631 -12.4055 0
    endloop
  endfacet
  facet normal 0.587785 -0.809017 0
    outer loop
      vertex 15.25 -26.4138 -4.5
      vertex 20.4085 -22.6659 0
      vertex 15.25 -26.4138 0
    endloop
  endfacet
  facet normal 0.587785 -0.809017 0
    outer loop
      vertex 20.4085 -22.6659 0
      vertex 15.25 -26.4138 -4.5
      vertex 20.4085 -22.6659 -4.5
    endloop
  endfacet
  facet normal 0.951057 -0.309017 0
    outer loop
      vertex 27.8631 -12.4055 0
      vertex 29.8335 -6.34131 -4.5
      vertex 29.8335 -6.34131 0
    endloop
  endfacet
  facet normal 0.951057 -0.309017 0
    outer loop
      vertex 29.8335 -6.34131 -4.5
      vertex 27.8631 -12.4055 0
      vertex 27.8631 -12.4055 -4.5
    endloop
  endfacet
  facet normal 0.866025 -0.5 0
    outer loop
      vertex 24.675 -17.9275 0
      vertex 27.8631 -12.4055 -4.5
      vertex 27.8631 -12.4055 0
    endloop
  endfacet
  facet normal 0.866025 -0.5 0
    outer loop
      vertex 27.8631 -12.4055 -4.5
      vertex 24.675 -17.9275 0
      vertex 24.675 -17.9275 -4.5
    endloop
  endfacet
  facet normal 0.743145 -0.669131 0
    outer loop
      vertex 20.4085 -22.6659 0
      vertex 24.675 -17.9275 -4.5
      vertex 24.675 -17.9275 0
    endloop
  endfacet
  facet normal 0.743145 -0.669131 0
    outer loop
      vertex 24.675 -17.9275 -4.5
      vertex 20.4085 -22.6659 0
      vertex 20.4085 -22.6659 -4.5
    endloop
  endfacet
  facet normal 0 0 -1
    outer loop
      vertex 25 0 -4.5
      vertex 30.5 0 -4.5
      vertex 29.8335 -6.34131 -4.5
    endloop
  endfacet
  facet normal 0 0 -1
    outer loop
      vertex 24.4537 -5.19779 -4.5
      vertex 29.8335 -6.34131 -4.5
      vertex 27.8631 -12.4055 -4.5
    endloop
  endfacet
  facet normal 0 0 -1
    outer loop
      vertex 30.5 0 -4.5
      vertex 25 0 -4.5
      vertex 29.8335 6.34131 -4.5
    endloop
  endfacet
  facet normal 0 0 -1
    outer loop
      vertex 24.4537 5.19779 -4.5
      vertex 29.8335 6.34131 -4.5
      vertex 25 0 -4.5
    endloop
  endfacet
  facet normal 0 0 -1
    outer loop
      vertex 22.8386 -10.1684 -4.5
      vertex 27.8631 -12.4055 -4.5
      vertex 24.675 -17.9275 -4.5
    endloop
  endfacet
  facet normal 0 0 -1
    outer loop
      vertex 29.8335 -6.34131 -4.5
      vertex 24.4537 -5.19779 -4.5
      vertex 25 0 -4.5
    endloop
  endfacet
  facet normal 0 0 -1
    outer loop
      vertex 27.8631 -12.4055 -4.5
      vertex 22.8386 -10.1684 -4.5
      vertex 24.4537 -5.19779 -4.5
    endloop
  endfacet
  facet normal 0 0 -1
    outer loop
      vertex 20.2254 -14.6946 -4.5
      vertex 24.675 -17.9275 -4.5
      vertex 20.4085 -22.6659 -4.5
    endloop
  endfacet
  facet normal 0 0 -1
    outer loop
      vertex 24.675 -17.9275 -4.5
      vertex 20.2254 -14.6946 -4.5
      vertex 22.8386 -10.1684 -4.5
    endloop
  endfacet
  facet normal 0 0 -1
    outer loop
      vertex 20.4085 -22.6659 -4.5
      vertex 16.7283 -18.5786 -4.5
      vertex 20.2254 -14.6946 -4.5
    endloop
  endfacet
  facet normal 0 0 -1
    outer loop
      vertex 15.25 -26.4138 -4.5
      vertex 16.7283 -18.5786 -4.5
      vertex 20.4085 -22.6659 -4.5
    endloop
  endfacet
  facet normal 0 0 -1
    outer loop
      vertex 15.25 -26.4138 -4.5
      vertex 12.5 -21.6506 -4.5
      vertex 16.7283 -18.5786 -4.5
    endloop
  endfacet
  facet normal 0 0 -1
    outer loop
      vertex 9.42502 -29.0072 -4.5
      vertex 12.5 -21.6506 -4.5
      vertex 15.25 -26.4138 -4.5
    endloop
  endfacet
  facet normal 0 0 -1
    outer loop
      vertex 9.42502 -29.0072 -4.5
      vertex 7.72542 -23.7764 -4.5
      vertex 12.5 -21.6506 -4.5
    endloop
  endfacet
  facet normal 0 0 -1
    outer loop
      vertex 3.18812 -30.3329 -4.5
      vertex 7.72542 -23.7764 -4.5
      vertex 9.42502 -29.0072 -4.5
    endloop
  endfacet
  facet normal 0 0 -1
    outer loop
      vertex 3.18812 -30.3329 -4.5
      vertex 2.61321 -24.863 -4.5
      vertex 7.72542 -23.7764 -4.5
    endloop
  endfacet
  facet normal 0 0 -1
    outer loop
      vertex 3.18812 -30.3329 -4.5
      vertex -2.61321 -24.863 -4.5
      vertex 2.61321 -24.863 -4.5
    endloop
  endfacet
  facet normal 0 0 -1
    outer loop
      vertex -3.18812 -30.3329 -4.5
      vertex -2.61321 -24.863 -4.5
      vertex 3.18812 -30.3329 -4.5
    endloop
  endfacet
  facet normal 0 0 -1
    outer loop
      vertex -3.18812 -30.3329 -4.5
      vertex -7.72542 -23.7764 -4.5
      vertex -2.61321 -24.863 -4.5
    endloop
  endfacet
  facet normal 0 0 -1
    outer loop
      vertex -9.42502 -29.0072 -4.5
      vertex -7.72542 -23.7764 -4.5
      vertex -3.18812 -30.3329 -4.5
    endloop
  endfacet
  facet normal 0 0 -1
    outer loop
      vertex -9.42502 -29.0072 -4.5
      vertex -12.5 -21.6506 -4.5
      vertex -7.72542 -23.7764 -4.5
    endloop
  endfacet
  facet normal 0 0 -1
    outer loop
      vertex -15.25 -26.4138 -4.5
      vertex -12.5 -21.6506 -4.5
      vertex -9.42502 -29.0072 -4.5
    endloop
  endfacet
  facet normal 0 0 -1
    outer loop
      vertex -15.25 -26.4138 -4.5
      vertex -16.7283 -18.5786 -4.5
      vertex -12.5 -21.6506 -4.5
    endloop
  endfacet
  facet normal 0 0 -1
    outer loop
      vertex -20.4085 -22.6659 -4.5
      vertex -16.7283 -18.5786 -4.5
      vertex -15.25 -26.4138 -4.5
    endloop
  endfacet
  facet normal -0 0 -1
    outer loop
      vertex -16.7283 -18.5786 -4.5
      vertex -20.4085 -22.6659 -4.5
      vertex -20.2254 -14.6946 -4.5
    endloop
  endfacet
  facet normal 0 0 -1
    outer loop
      vertex -24.675 -17.9275 -4.5
      vertex -20.2254 -14.6946 -4.5
      vertex -20.4085 -22.6659 -4.5
    endloop
  endfacet
  facet normal -0 0 -1
    outer loop
      vertex -20.2254 -14.6946 -4.5
      vertex -24.675 -17.9275 -4.5
      vertex -22.8386 -10.1684 -4.5
    endloop
  endfacet
  facet normal 0 0 -1
    outer loop
      vertex -27.8631 -12.4055 -4.5
      vertex -22.8386 -10.1684 -4.5
      vertex -24.675 -17.9275 -4.5
    endloop
  endfacet
  facet normal -0 0 -1
    outer loop
      vertex -22.8386 -10.1684 -4.5
      vertex -27.8631 -12.4055 -4.5
      vertex -24.4537 -5.19779 -4.5
    endloop
  endfacet
  facet normal 0 0 -1
    outer loop
      vertex -29.8335 -6.34131 -4.5
      vertex -24.4537 -5.19779 -4.5
      vertex -27.8631 -12.4055 -4.5
    endloop
  endfacet
  facet normal -0 0 -1
    outer loop
      vertex 29.8335 6.34131 -4.5
      vertex 24.4537 5.19779 -4.5
      vertex 27.8631 12.4055 -4.5
    endloop
  endfacet
  facet normal 0 0 -1
    outer loop
      vertex 22.8386 10.1684 -4.5
      vertex 27.8631 12.4055 -4.5
      vertex 24.4537 5.19779 -4.5
    endloop
  endfacet
  facet normal -0 0 -1
    outer loop
      vertex 27.8631 12.4055 -4.5
      vertex 22.8386 10.1684 -4.5
      vertex 24.675 17.9275 -4.5
    endloop
  endfacet
  facet normal 0 0 -1
    outer loop
      vertex 20.2254 14.6946 -4.5
      vertex 24.675 17.9275 -4.5
      vertex 22.8386 10.1684 -4.5
    endloop
  endfacet
  facet normal -0 0 -1
    outer loop
      vertex 24.675 17.9275 -4.5
      vertex 20.2254 14.6946 -4.5
      vertex 20.4085 22.6659 -4.5
    endloop
  endfacet
  facet normal 0 0 -1
    outer loop
      vertex 16.7283 18.5786 -4.5
      vertex 20.4085 22.6659 -4.5
      vertex 20.2254 14.6946 -4.5
    endloop
  endfacet
  facet normal 0 0 -1
    outer loop
      vertex 16.7283 18.5786 -4.5
      vertex 15.25 26.4138 -4.5
      vertex 20.4085 22.6659 -4.5
    endloop
  endfacet
  facet normal 0 0 -1
    outer loop
      vertex 12.5 21.6506 -4.5
      vertex 15.25 26.4138 -4.5
      vertex 16.7283 18.5786 -4.5
    endloop
  endfacet
  facet normal 0 0 -1
    outer loop
      vertex 12.5 21.6506 -4.5
      vertex 9.42502 29.0072 -4.5
      vertex 15.25 26.4138 -4.5
    endloop
  endfacet
  facet normal 0 0 -1
    outer loop
      vertex 7.72542 23.7764 -4.5
      vertex 9.42502 29.0072 -4.5
      vertex 12.5 21.6506 -4.5
    endloop
  endfacet
  facet normal 0 0 -1
    outer loop
      vertex 7.72542 23.7764 -4.5
      vertex 3.18812 30.3329 -4.5
      vertex 9.42502 29.0072 -4.5
    endloop
  endfacet
  facet normal 0 0 -1
    outer loop
      vertex 2.61321 24.863 -4.5
      vertex 3.18812 30.3329 -4.5
      vertex 7.72542 23.7764 -4.5
    endloop
  endfacet
  facet normal 0 0 -1
    outer loop
      vertex -2.61321 24.863 -4.5
      vertex 3.18812 30.3329 -4.5
      vertex 2.61321 24.863 -4.5
    endloop
  endfacet
  facet normal 0 0 -1
    outer loop
      vertex -2.61321 24.863 -4.5
      vertex -3.18812 30.3329 -4.5
      vertex 3.18812 30.3329 -4.5
    endloop
  endfacet
  facet normal 0 0 -1
    outer loop
      vertex -7.72542 23.7764 -4.5
      vertex -3.18812 30.3329 -4.5
      vertex -2.61321 24.863 -4.5
    endloop
  endfacet
  facet normal 0 0 -1
    outer loop
      vertex -7.72542 23.7764 -4.5
      vertex -9.42502 29.0072 -4.5
      vertex -3.18812 30.3329 -4.5
    endloop
  endfacet
  facet normal 0 0 -1
    outer loop
      vertex -12.5 21.6506 -4.5
      vertex -9.42502 29.0072 -4.5
      vertex -7.72542 23.7764 -4.5
    endloop
  endfacet
  facet normal 0 0 -1
    outer loop
      vertex -12.5 21.6506 -4.5
      vertex -15.25 26.4138 -4.5
      vertex -9.42502 29.0072 -4.5
    endloop
  endfacet
  facet normal 0 0 -1
    outer loop
      vertex -16.7283 18.5786 -4.5
      vertex -15.25 26.4138 -4.5
      vertex -12.5 21.6506 -4.5
    endloop
  endfacet
  facet normal 0 0 -1
    outer loop
      vertex -20.4085 22.6659 -4.5
      vertex -16.7283 18.5786 -4.5
      vertex -20.2254 14.6946 -4.5
    endloop
  endfacet
  facet normal 0 0 -1
    outer loop
      vertex -16.7283 18.5786 -4.5
      vertex -20.4085 22.6659 -4.5
      vertex -15.25 26.4138 -4.5
    endloop
  endfacet
  facet normal 0 0 -1
    outer loop
      vertex -24.675 17.9275 -4.5
      vertex -20.2254 14.6946 -4.5
      vertex -22.8386 10.1684 -4.5
    endloop
  endfacet
  facet normal 0 0 -1
    outer loop
      vertex -27.8631 12.4055 -4.5
      vertex -22.8386 10.1684 -4.5
      vertex -24.4537 5.19779 -4.5
    endloop
  endfacet
  facet normal 0 0 -1
    outer loop
      vertex -20.2254 14.6946 -4.5
      vertex -24.675 17.9275 -4.5
      vertex -20.4085 22.6659 -4.5
    endloop
  endfacet
  facet normal 0 0 -1
    outer loop
      vertex -29.8335 6.34131 -4.5
      vertex -24.4537 5.19779 -4.5
      vertex -25 0 -4.5
    endloop
  endfacet
  facet normal -0 0 -1
    outer loop
      vertex -24.4537 -5.19779 -4.5
      vertex -29.8335 -6.34131 -4.5
      vertex -25 0 -4.5
    endloop
  endfacet
  facet normal 0 0 -1
    outer loop
      vertex -22.8386 10.1684 -4.5
      vertex -27.8631 12.4055 -4.5
      vertex -24.675 17.9275 -4.5
    endloop
  endfacet
  facet normal 0 0 -1
    outer loop
      vertex -30.5 0 -4.5
      vertex -25 0 -4.5
      vertex -29.8335 -6.34131 -4.5
    endloop
  endfacet
  facet normal 0 0 -1
    outer loop
      vertex -24.4537 5.19779 -4.5
      vertex -29.8335 6.34131 -4.5
      vertex -27.8631 12.4055 -4.5
    endloop
  endfacet
  facet normal 0 0 -1
    outer loop
      vertex -25 0 -4.5
      vertex -30.5 0 -4.5
      vertex -29.8335 6.34131 -4.5
    endloop
  endfacet
  facet normal -0.743145 -0.669131 0
    outer loop
      vertex -20.4085 -22.6659 -4.5
      vertex -24.675 -17.9275 0
      vertex -24.675 -17.9275 -4.5
    endloop
  endfacet
  facet normal -0.743145 -0.669131 0
    outer loop
      vertex -24.675 -17.9275 0
      vertex -20.4085 -22.6659 -4.5
      vertex -20.4085 -22.6659 0
    endloop
  endfacet
  facet normal -0.406737 -0.913545 0
    outer loop
      vertex -15.25 -26.4138 -4.5
      vertex -9.42502 -29.0072 0
      vertex -15.25 -26.4138 0
    endloop
  endfacet
  facet normal -0.406737 -0.913545 -0
    outer loop
      vertex -9.42502 -29.0072 0
      vertex -15.25 -26.4138 -4.5
      vertex -9.42502 -29.0072 -4.5
    endloop
  endfacet
  facet normal 0 -1 0
    outer loop
      vertex -3.18812 -30.3329 -4.5
      vertex 3.18812 -30.3329 0
      vertex -3.18812 -30.3329 0
    endloop
  endfacet
  facet normal 0 -1 -0
    outer loop
      vertex 3.18812 -30.3329 0
      vertex -3.18812 -30.3329 -4.5
      vertex 3.18812 -30.3329 -4.5
    endloop
  endfacet
  facet normal 0.406737 -0.913545 0
    outer loop
      vertex 9.42502 -29.0072 -4.5
      vertex 15.25 -26.4138 0
      vertex 9.42502 -29.0072 0
    endloop
  endfacet
  facet normal 0.406737 -0.913545 0
    outer loop
      vertex 15.25 -26.4138 0
      vertex 9.42502 -29.0072 -4.5
      vertex 15.25 -26.4138 -4.5
    endloop
  endfacet
  facet normal -0.587785 -0.809017 0
    outer loop
      vertex -20.4085 -22.6659 -4.5
      vertex -15.25 -26.4138 0
      vertex -20.4085 -22.6659 0
    endloop
  endfacet
  facet normal -0.587785 -0.809017 -0
    outer loop
      vertex -15.25 -26.4138 0
      vertex -20.4085 -22.6659 -4.5
      vertex -15.25 -26.4138 -4.5
    endloop
  endfacet
endsolid OpenSCAD_Model
